{
.appVersion = "3201";
.formatVersion = 3;
customParameters = (
{
name = "Use Typo Metrics";
value = 1;
},
{
name = fsType;
value = (
);
}
);
date = "2023-07-13 14:03:05 +0000";
familyName = Shanti;
featurePrefixes = (
{
automatic = 1;
code = "languagesystem DFLT dflt;

languagesystem latn dflt;
";
name = Languagesystems;
}
);
features = (
{
automatic = 1;
code = "feature sups;
feature frac;
feature ordn;
";
tag = aalt;
},
{
automatic = 1;
code = "lookup ccmp_latn_1 {
	sub fi by f i;
	sub fl by f l;
} ccmp_latn_1;

script latn;
lookup ccmp_latn_1;
";
tag = ccmp;
},
{
automatic = 1;
code = "sub one by onesuperior;
sub two by twosuperior;
sub three by threesuperior;
sub four by foursuperior;
";
tag = sups;
},
{
automatic = 1;
code = "sub one slash four by onequarter;
sub one slash two by onehalf;
sub three slash four by threequarters;
";
tag = frac;
},
{
automatic = 1;
code = "sub [zero one two three four five six seven eight nine] [A a]' by ordfeminine;
sub [zero one two three four five six seven eight nine] [O o]' by ordmasculine;
";
tag = ordn;
},
{
automatic = 1;
code = "lookupflag IgnoreMarks;
sub f i by fi;
sub f l by fl;
";
tag = liga;
}
);
fontMaster = (
{
customParameters = (
{
name = typoAscender;
value = 2030;
},
{
name = typoDescender;
value = -639;
},
{
name = typoLineGap;
value = 0;
},
{
name = winAscent;
value = 2030;
},
{
name = winDescent;
value = 639;
},
{
name = underlineThickness;
value = 102;
},
{
name = underlinePosition;
value = -154;
},
{
name = strikeoutPosition;
value = 512;
},
{
name = strikeoutSize;
value = 102;
},
{
name = hheaAscender;
value = 2030;
},
{
name = hheaDescender;
value = -639;
},
{
name = hheaLineGap;
value = 0;
},
{
name = TTFStems;
value = (
{
horizontal = 1;
name = "Y: 170";
width = 170;
},
{
horizontal = 1;
name = "Y: 141";
width = 141;
},
{
horizontal = 0;
name = "X: 189";
width = 189;
}
);
}
);
guides = (
{
pos = (0,300);
},
{
pos = (0,1000);
}
);
id = "01C703B5-1257-45FB-9F79-4B1C4C3BA1BB";
metricValues = (
{

glyphs = (
{
glyphname = A;
lastChange = "2023-07-13 14:25:31 +0000";
layers = (
{
anchors = (
{
name = bottom;
pos = (648,0);
},
{
name = ogonek;
pos = (1166,10);
},
{
name = top;
pos = (648,1412);
}
);
layerId = "01C703B5-1257-45FB-9F79-4B1C4C3BA1BB";
shapes = (
{
closed = 1;
nodes = (
(19,64,l),
(553,1412,l),
(746,1412,l),
(1273,59,l),
(1273,0,l),
(1084,0,l),
(932,396,l),
(349,396,l),
(195,0,l),
(19,0,l)
);
},
{
closed = 1;
nodes = (
(547,928,l),
(414,568,l),
(869,568,l),
(739,928,l),
(644,1198,l)
);
}
);
width = 1295;
}
);
unicode = 65;
},
{
glyphname = AE;
lastChange = "2023-07-13 14:25:31 +0000";
layers = (
{
anchors = (
{
name = bottom;
pos = (907,0);
},
{
name = top;
pos = (907,1412);
}
);
layerId = "01C703B5-1257-45FB-9F79-4B1C4C3BA1BB";
shapes = (
{
closed = 1;
nodes = (
(960,0,l),
(924,410,l),
(389,410,l),
(176,0,l),
(-33,0,l),
(704,1412,l),
(1683,1412,l),
(1683,1237,l),
(1042,1237,l),
(1081,820,l),
(1651,820,l),
(1651,645,l),
(1098,645,l),
(1142,177,l),
(1694,177,l),
(1694,0,l)
);
},
{
closed = 1;
nodes = (
(472,581,l),
(907,581,l),
(848,1245,l),
(807,1245,l)
);
}
);
width = 1814;
}
);
unicode = 198;
},
{
glyphname = B;
lastChange = "2023-07-13 14:25:31 +0000";
layers = (
{
anchors = (
{
name = bottom;
pos = (635,0);
},
{
name = center;
pos = (635,706);
},
{
name = top;
pos = (635,1412);
}
);
layerId = "01C703B5-1257-45FB-9F79-4B1C4C3BA1BB";
shapes = (
{
closed = 1;
nodes = (
(60,1412,l),
(615,1412,ls),
(932,1412,o),
(1122,1319,o),
(1122,1054,cs),
(1122,885,o),
(1006,785,o),
(892,740,c),
(1024,700,o),
(1163,615,o),
(1163,399,cs),
(1163,91,o),
(913,0,o),
(648,0,cs),
(190,0,l),
(190,1242,l),
(60,1242,l)
);
},
{
closed = 1;
nodes = (
(387,821,l),
(637,821,ls),
(769,821,o),
(919,853,o),
(919,1037,cs),
(919,1220,o),
(780,1242,o),
(631,1242,cs),
(387,1242,l)
);
},
{
closed = 1;
nodes = (
(386,647,l),
(386,170,l),
(678,170,l),
(863,175,o),
(958,250,o),
(958,410,cs),
(958,546,o),
(874,647,o),
(677,647,cs)
);
}
);
width = 1269;
}
);
unicode = 66;
},
{
glyphname = C;
lastChange = "2023-07-13 14:25:31 +0000";
layers = (
{
anchors = (
{
name = bottom;
pos = (618,0);
},
{
name = top;
pos = (618,1412);
}
);
layerId = "01C703B5-1257-45FB-9F79-4B1C4C3BA1BB";
shapes = (
{
closed = 1;
nodes = (
(1162,93,l),
(1001,12,o),
(859,-26,o),
(730,-26,cs),
(283,-26,o),
(105,325,o),
(105,735,cs),
(105,1226,o),
(432,1442,o),
(730,1442,cs),
(949,1442,o),
(1151,1322,o),
(1196,1095,c),
(1009,1051,l),
(988,1190,o),
(868,1268,o),
(732,1268,cs),
(537,1268,o),
(313,1114,o),
(313,737,cs),
(313,438,o),
(406,149,o),
(749,149,cs),
(849,149,o),
(963,182,o),
(1096,247,c)
);
}
);
width = 1236;
}
);
unicode = 67;
},
{
glyphname = D;
lastChange = "2023-07-13 14:25:31 +0000";
layers = (
{
anchors = (
{
name = bottom;
pos = (700,0);
},
{
name = center;
pos = (700,706);
},
{
name = top;
pos = (700,1412);
}
);
layerId = "01C703B5-1257-45FB-9F79-4B1C4C3BA1BB";
shapes = (
{
closed = 1;
nodes = (
(1289,171,o),
(970,0,o),
(568,0,cs),
(190,0,l),
(190,1242,l),
(50,1242,l),
(50,1412,l),
(592,1412,ls),
(1000,1412,o),
(1289,1206,o),
(1289,706,cs)
);
},
{
closed = 1;
nodes = (
(1080,1037,o),
(946,1242,o),
(595,1242,cs),
(385,1242,l),
(385,170,l),
(554,170,l),
(922,175,o),
(1080,334,o),
(1080,699,cs)
);
}
);
width = 1400;
}
);
unicode = 68;
},
{
glyphname = Eth;
layers = (
{
layerId = "01C703B5-1257-45FB-9F79-4B1C4C3BA1BB";
shapes = (
{
closed = 1;
nodes = (
(73,640,l),
(73,808,l),
(192,808,l),
(192,1412,l),
(674,1412,ls),
(1090,1412,o),
(1294,1072,o),
(1294,725,cs),
(1294,296,o),
(1071,0,o),
(651,0,cs),
(192,0,l),
(192,640,l)
);
},
{
closed = 1;
nodes = (
(389,1240,l),
(389,808,l),
(565,808,l),
(565,640,l),
(389,640,l),
(389,171,l),
(637,171,ls),
(936,171,o),
(1084,403,o),
(1084,713,cs),
(1084,978,o),
(944,1240,o),
(677,1240,cs)
);
}
);
width = 1403;
}
);
unicode = 208;
},
{
glyphname = E;
lastChange = "2023-07-13 14:25:31 +0000";
layers = (
{
anchors = (
{
name = bottom;
pos = (569,0);
},
{
name = ogonek;
pos = (1024,10);
},
{
name = top;
pos = (569,1412);
},
{
name = topleft;
pos = (20,1412);
}
);
layerId = "01C703B5-1257-45FB-9F79-4B1C4C3BA1BB";
shapes = (
{
closed = 1;
nodes = (
(190,1242,l),
(60,1242,l),
(60,1412,l),
(1008,1412,l),
(1008,1242,l),
(386,1242,l),
(386,818,l),
(973,818,l),
(973,643,l),
(386,643,l),
(386,170,l),
(1017,170,l),
(1017,0,l),
(190,0,l)
);
}
);
width = 1138;
}
);
unicode = 69;
},
{
glyphname = F;
lastChange = "2023-07-13 14:25:31 +0000";
layers = (
{
anchors = (
{
name = bottom;
pos = (538,0);
},
{
name = top;
pos = (538,1412);
}
);
layerId = "01C703B5-1257-45FB-9F79-4B1C4C3BA1BB";
shapes = (
{
closed = 1;
nodes = (
(61,1412,l),
(986,1412,l),
(986,1242,l),
(391,1242,l),
(391,789,l),
(950,789,l),
(950,614,l),
(391,614,l),
(391,0,l),
(191,0,l),
(191,1242,l),
(61,1242,l)
);
}
);
width = 1076;
}
);
unicode = 70;
},
{
glyphname = G;
lastChange = "2023-07-13 14:25:31 +0000";
layers = (
{
anchors = (
{
name = bottom;
pos = (684,0);
},
{
name = top;
pos = (684,1412);
}
);
layerId = "01C703B5-1257-45FB-9F79-4B1C4C3BA1BB";
shapes = (
{
closed = 1;
nodes = (
(871,751,l),
(1231,751,l),
(1231,54,l),
(1099,12,o),
(952,-26,o),
(752,-26,cs),
(311,-26,o),
(105,281,o),
(105,700,cs),
(105,1261,o),
(450,1442,o),
(763,1442,cs),
(936,1442,o),
(1167,1369,o),
(1203,1093,c),
(1027,1051,l),
(994,1198,o),
(892,1268,o),
(767,1268,cs),
(544,1268,o),
(313,1147,o),
(313,704,cs),
(313,369,o),
(434,149,o),
(785,149,cs),
(894,149,o),
(967,163,o),
(1027,175,c),
(1041,175,l),
(1041,579,l),
(871,599,l)
);
}
);
width = 1368;
}
);
unicode = 71;
},
{
glyphname = H;
lastChange = "2023-07-13 14:25:31 +0000";
layers = (
{
anchors = (
{
name = bottom;
pos = (709,0);
},
{
name = center;
pos = (709,706);
},
{
name = top;
pos = (709,1412);
},
{
name = topleft;
pos = (20,1412);
}
);
layerId = "01C703B5-1257-45FB-9F79-4B1C4C3BA1BB";
shapes = (
{
closed = 1;
nodes = (
(191,1412,l),
(388,1412,l),
(388,818,l),
(1029,818,l),
(1029,1412,l),
(1226,1412,l),
(1226,0,l),
(1029,0,l),
(1029,640,l),
(388,640,l),
(388,0,l),
(191,0,l)
);
}
);
width = 1417;
}
);
unicode = 72;
},
{
glyphname = I;
lastChange = "2023-07-13 14:25:31 +0000";
layers = (
{
anchors = (
{
name = bottom;
pos = (289,0);
},
{
name = ogonek;
pos = (519,10);
},
{
name = top;
pos = (289,1412);
},
{
name = topleft;
pos = (20,1412);
}
);
layerId = "01C703B5-1257-45FB-9F79-4B1C4C3BA1BB";
shapes = (
{
closed = 1;
nodes = (
(191,0,l),
(191,1412,l),
(387,1412,l),
(387,0,l)
);
}
);
width = 577;
}
);
unicode = 73;
},
{
glyphname = J;
lastChange = "2023-07-13 14:25:31 +0000";
layers = (
{
anchors = (
{
name = bottom;
pos = (288,0);
},
{
name = top;
pos = (288,1412);
}
);
layerId = "01C703B5-1257-45FB-9F79-4B1C4C3BA1BB";
shapes = (
{
closed = 1;
nodes = (
(31,1412,l),
(385,1412,l),
(385,126,ls),
(385,-150,o),
(246,-273,o),
(76,-273,cs),
(3,-273,o),
(-76,-251,o),
(-152,-208,c),
(-117,-57,l),
(-65,-84,o),
(-14,-102,o),
(31,-102,cs),
(123,-102,o),
(191,-54,o),
(191,125,cs),
(191,1242,l),
(31,1242,l)
);
}
);
width = 575;
}
);
unicode = 74;
},
{
glyphname = K;
lastChange = "2023-07-13 14:25:31 +0000";
layers = (
{
anchors = (
{
name = bottom;
pos = (616,0);
},
{
name = top;
pos = (616,1412);
}
);
layerId = "01C703B5-1257-45FB-9F79-4B1C4C3BA1BB";
shapes = (
{
closed = 1;
nodes = (
(1244,0,l),
(988,0,l),
(443,706,l),
(387,636,l),
(387,0,l),
(191,0,l),
(191,1412,l),
(387,1412,l),
(387,769,l),
(494,896,l),
(948,1412,l),
(1200,1412,l),
(626,785,l)
);
}
);
width = 1231;
}
);
unicode = 75;
},
{
glyphname = L;
lastChange = "2023-07-13 14:25:31 +0000";
layers = (
{
anchors = (
{
name = bottom;
pos = (513,0);
},
{
name = center;
pos = (513,706);
},
{
name = top;
pos = (513,1412);
},
{
name = topright;
pos = (1005,1412);
}
);
layerId = "01C703B5-1257-45FB-9F79-4B1C4C3BA1BB";
shapes = (
{
closed = 1;
nodes = (
(190,0,l),
(190,1412,l),
(387,1412,l),
(387,170,l),
(991,170,l),
(991,0,l)
);
}
);
width = 1025;
}
);
unicode = 76;
},
{
glyphname = Lslash;
layers = (
{
layerId = "01C703B5-1257-45FB-9F79-4B1C4C3BA1BB";
shapes = (
{
closed = 1;
nodes = (
(196,0,l),
(196,516,l),
(74,441,l),
(74,607,l),
(196,681,l),
(196,1412,l),
(391,1412,l),
(391,799,l),
(763,1025,l),
(763,859,l),
(391,635,l),
(391,180,l),
(996,180,l),
(996,0,l)
);
}
);
width = 1030;
}
);
unicode = 321;
},
{
glyphname = M;
lastChange = "2023-07-13 14:25:31 +0000";
layers = (
{
anchors = (
{
name = bottom;
pos = (895,0);
},
{
name = top;
pos = (895,1412);
}
);
layerId = "01C703B5-1257-45FB-9F79-4B1C4C3BA1BB";
shapes = (
{
closed = 1;
nodes = (
(1404,0,l),
(1404,735,ls),
(1404,773,o),
(1405,1005,o),
(1408,1146,c),
(1384,1150,l),
(971,0,l),
(797,0,l),
(398,1139,l),
(373,1135,l),
(376,994,o),
(379,768,o),
(379,728,cs),
(379,0,l),
(190,0,l),
(190,1412,l),
(505,1412,l),
(889,252,l),
(1296,1412,l),
(1599,1412,l),
(1599,0,l)
);
}
);
width = 1789;
}
);
unicode = 77;
},
{
glyphname = N;
lastChange = "2023-07-13 14:25:31 +0000";
layers = (
{
anchors = (
{
name = bottom;
pos = (744,0);
},
{
name = top;
pos = (744,1412);
}
);
layerId = "01C703B5-1257-45FB-9F79-4B1C4C3BA1BB";
shapes = (
{
closed = 1;
nodes = (
(191,0,l),
(191,1412,l),
(437,1412,l),
(1096,305,l),
(1118,310,l),
(1114,438,o),
(1112,699,o),
(1112,742,cs),
(1112,1412,l),
(1296,1412,l),
(1296,0,l),
(1059,0,l),
(387,1123,l),
(366,1118,l),
(370,988,o),
(372,720,o),
(372,675,cs),
(372,0,l)
);
}
);
width = 1487;
}
);
unicode = 78;
},
{
glyphname = O;
lastChange = "2023-07-13 14:25:31 +0000";
layers = (
{
anchors = (
{
name = bottom;
pos = (742,0);
},
{
name = center;
pos = (742,706);
},
{
name = ogonek;
pos = (1335,10);
},
{
name = top;
pos = (742,1412);
},
{
name = topleft;
pos = (20,1412);
},
{
name = topright;
pos = (1463,1412);
}
);
layerId = "01C703B5-1257-45FB-9F79-4B1C4C3BA1BB";
shapes = (
{
closed = 1;
nodes = (
(279,-26,o),
(112,320,o),
(112,703,cs),
(112,1095,o),
(293,1442,o),
(742,1442,cs),
(1192,1442,o),
(1371,1095,o),
(1371,703,cs),
(1371,320,o),
(1206,-26,o),
(742,-26,cs)
);
},
{
closed = 1;
nodes = (
(1073,149,o),
(1164,408,o),
(1164,708,cs),
(1164,1020,o),
(1065,1268,o),
(742,1268,cs),
(420,1268,o),
(319,1020,o),
(319,708,cs),
(319,408,o),
(410,149,o),
(742,149,cs)
);
}
);
width = 1483;
}
);
unicode = 79;
},
{
glyphname = Oslash;
lastChange = "2023-07-13 14:25:31 +0000";
layers = (
{
anchors = (
{
name = bottom;
pos = (743,0);
},
{
name = top;
pos = (743,1412);
}
);
layerId = "01C703B5-1257-45FB-9F79-4B1C4C3BA1BB";
shapes = (
{
closed = 1;
nodes = (
(1371,311,o),
(1192,-26,o),
(737,-26,cs),
(604,-26,o),
(503,0,o),
(415,47,c),
(324,-103,l),
(195,-69,l),
(311,123,l),
(172,254,o),
(113,463,o),
(113,703,cs),
(113,886,o),
(154,1101,o),
(280,1248,c),
(279,1248,l),
(407,1387,o),
(583,1442,o),
(747,1442,cs),
(868,1442,o),
(973,1416,o),
(1062,1368,c),
(1152,1517,l),
(1283,1482,l),
(1167,1291,l),
(1300,1166,o),
(1371,975,o),
(1371,714,cs)
);
},
{
closed = 1;
nodes = (
(862,149,o),
(973,196,o),
(1049,284,c),
(1139,398,o),
(1161,590,o),
(1161,715,cs),
(1161,886,o),
(1132,1020,o),
(1064,1120,c),
(513,210,l),
(578,169,o),
(657,149,o),
(741,149,cs)
);
},
{
closed = 1;
nodes = (
(320,555,o),
(347,411,o),
(419,302,c),
(968,1212,l),
(908,1248,o),
(837,1268,o),
(748,1268,cs),
(425,1268,o),
(320,1020,o),
(320,708,cs)
);
}
);
width = 1485;
}
);
unicode = 216;
},
{
glyphname = OE;
lastChange = "2023-07-13 14:25:31 +0000";
layers = (
{
anchors = (
{
name = bottom;
pos = (1000,0);
},
{
name = top;
pos = (1000,1412);
}
);
layerId = "01C703B5-1257-45FB-9F79-4B1C4C3BA1BB";
shapes = (
{
closed = 1;
nodes = (
(1875,0,l),
(743,0,ls),
(406,0,o),
(107,230,o),
(107,715,cs),
(107,1025,o),
(243,1412,o),
(792,1412,cs),
(1869,1412,l),
(1869,1240,l),
(1208,1240,l),
(1208,817,l),
(1839,817,l),
(1839,640,l),
(1208,640,l),
(1208,180,l),
(1875,180,l)
);
},
{
closed = 1;
nodes = (
(1000,1240,l),
(792,1240,ls),
(356,1240,o),
(321,888,o),
(321,718,cs),
(321,510,o),
(366,180,o),
(823,180,cs),
(1000,180,l)
);
}
);
width = 1999;
}
);
unicode = 338;
},
{
glyphname = P;
lastChange = "2023-07-13 14:25:31 +0000";
layers = (
{
anchors = (
{
name = bottom;
pos = (580,0);
},
{
name = top;
pos = (580,1412);
}
);
layerId = "01C703B5-1257-45FB-9F79-4B1C4C3BA1BB";
shapes = (
{
closed = 1;
nodes = (
(61,1412,l),
(608,1412,ls),
(890,1412,o),
(1101,1307,o),
(1101,1010,cs),
(1101,784,o),
(975,587,o),
(571,587,cs),
(387,587,l),
(387,0,l),
(191,0,l),
(191,1242,l),
(61,1242,l)
);
},
{
closed = 1;
nodes = (
(387,757,l),
(482,757,ls),
(684,757,o),
(896,756,o),
(896,1010,cs),
(896,1207,o),
(752,1242,o),
(601,1242,cs),
(387,1242,l)
);
}
);
width = 1160;
}
);
unicode = 80;
},
{
glyphname = Thorn;
lastChange = "2023-07-13 14:25:31 +0000";
layers = (
{
anchors = (
{
name = bottom;
pos = (580,0);
},
{
name = top;
pos = (580,1412);
}
);
layerId = "01C703B5-1257-45FB-9F79-4B1C4C3BA1BB";
shapes = (
{
closed = 1;
nodes = (
(189,1457,l),
(385,1457,l),
(385,1269,l),
(606,1269,ls),
(890,1269,o),
(1099,1166,o),
(1099,868,cs),
(1099,568,o),
(905,444,o),
(569,444,cs),
(385,444,l),
(385,0,l),
(189,0,l)
);
},
{
closed = 1;
nodes = (
(385,614,l),
(480,614,ls),
(682,614,o),
(894,613,o),
(894,868,cs),
(894,1062,o),
(750,1100,o),
(599,1100,cs),
(385,1100,l)
);
}
);
width = 1160;
}
);
unicode = 222;
},
{
glyphname = Q;
lastChange = "2023-07-13 14:25:31 +0000";
layers = (
{
anchors = (
{
name = bottom;
pos = (734,0);
},
{
name = top;
pos = (734,1412);
}
);
layerId = "01C703B5-1257-45FB-9F79-4B1C4C3BA1BB";
shapes = (
{
closed = 1;
nodes = (
(1352,507,o),
(1288,255,o),
(1064,92,c),
(1152,68,o),
(1286,17,o),
(1362,-25,c),
(1305,-180,l),
(1120,-107,o),
(945,-61,o),
(752,-24,c),
(733,-25,o),
(717,-26,o),
(698,-26,cs),
(343,-26,o),
(111,243,o),
(111,703,cs),
(111,1095,o),
(304,1442,o),
(728,1442,cs),
(1177,1442,o),
(1352,1107,o),
(1352,722,cs)
);
},
{
closed = 1;
nodes = (
(319,419,o),
(420,149,o),
(730,149,cs),
(1076,149,o),
(1149,468,o),
(1149,704,cs),
(1149,1055,o),
(1010,1268,o),
(733,1268,cs),
(394,1268,o),
(319,940,o),
(319,700,cs)
);
}
);
width = 1467;
}
);
unicode = 81;
},
{
glyphname = R;
lastChange = "2023-07-13 14:25:31 +0000";
layers = (
{
anchors = (
{
name = bottom;
pos = (642,0);
},
{
name = top;
pos = (642,1412);
}
);
layerId = "01C703B5-1257-45FB-9F79-4B1C4C3BA1BB";
shapes = (
{
closed = 1;
nodes = (
(61,1412,l),
(624,1412,ls),
(869,1412,o),
(1113,1324,o),
(1113,1043,cs),
(1113,862,o),
(1014,753,o),
(854,692,c),
(1175,616,o),
(1055,416,o),
(1183,0,c),
(973,0,l),
(889,437,o),
(945,607,o),
(635,607,cs),
(387,607,l),
(387,0,l),
(191,0,l),
(191,1242,l),
(61,1242,l)
);
},
{
closed = 1;
nodes = (
(386,755,l),
(618,755,ls),
(781,755,o),
(909,824,o),
(909,1019,cs),
(909,1227,o),
(737,1242,o),
(592,1242,cs),
(386,1242,l)
);
}
);
width = 1284;
}
);
unicode = 82;
},
{
glyphname = S;
lastChange = "2023-07-13 14:25:31 +0000";
layers = (
{
anchors = (
{
name = bottom;
pos = (548,0);
},
{
name = top;
pos = (548,1412);
}
);
layerId = "01C703B5-1257-45FB-9F79-4B1C4C3BA1BB";
shapes = (
{
closed = 1;
nodes = (
(708,149,o),
(804,251,o),
(804,383,cs),
(804,517,o),
(717,573,o),
(500,651,cs),
(217,752,o),
(120,873,o),
(120,1070,cs),
(120,1313,o),
(313,1442,o),
(561,1442,cs),
(690,1442,o),
(830,1401,o),
(975,1305,c),
(898,1159,l),
(777,1236,o),
(665,1268,o),
(565,1268,cs),
(400,1268,o),
(311,1195,o),
(311,1074,cs),
(311,939,o),
(380,887,o),
(582,821,c),
(937,701,o),
(994,583,o),
(994,401,cs),
(994,137,o),
(812,-26,o),
(501,-26,cs),
(380,-26,o),
(240,9,o),
(87,93,c),
(151,249,l),
(280,181,o),
(389,149,o),
(489,149,cs)
);
}
);
width = 1095;
}
);
unicode = 83;
},
{
glyphname = T;
lastChange = "2023-07-13 14:25:31 +0000";
layers = (
{
anchors = (
{
name = bottom;
pos = (570,0);
},
{
name = center;
pos = (570,706);
},
{
name = top;
pos = (570,1412);
}
);
layerId = "01C703B5-1257-45FB-9F79-4B1C4C3BA1BB";
shapes = (
{
closed = 1;
nodes = (
(668,0,l),
(473,0,l),
(473,1242,l),
(35,1242,l),
(35,1412,l),
(1106,1412,l),
(1106,1242,l),
(668,1242,l)
);
}
);
width = 1140;
}
);
unicode = 84;
},
{
glyphname = U;
lastChange = "2023-07-13 14:25:31 +0000";
layers = (
{
anchors = (
{
name = bottom;
pos = (721,0);
},
{
name = ogonek;
pos = (1297,10);
},
{
name = top;
pos = (721,1412);
},
{
name = topright;
pos = (1421,1412);
}
);
layerId = "01C703B5-1257-45FB-9F79-4B1C4C3BA1BB";
shapes = (
{
closed = 1;
nodes = (
(1266,1412,l),
(1266,524,ls),
(1266,193,o),
(1045,-26,o),
(721,-26,cs),
(398,-26,o),
(174,163,o),
(174,531,cs),
(174,1412,l),
(370,1412,l),
(370,519,ls),
(370,222,o),
(554,150,o),
(725,150,cs),
(1029,150,o),
(1073,376,o),
(1073,524,cs),
(1073,1412,l)
);
}
);
width = 1441;
}
);
unicode = 85;
},
{
glyphname = V;
lastChange = "2023-07-13 14:25:31 +0000";
layers = (
{
anchors = (
{
name = bottom;
pos = (606,0);
},
{
name = top;
pos = (606,1412);
}
);
layerId = "01C703B5-1257-45FB-9F79-4B1C4C3BA1BB";
shapes = (
{
closed = 1;
nodes = (
(1000,1412,l),
(1205,1412,l),
(706,0,l),
(500,0,l),
(15,1412,l),
(229,1412,l),
(467,638,l),
(601,194,l),
(612,194,l),
(757,641,l)
);
}
);
width = 1212;
}
);
unicode = 86;
},
{
glyphname = W;
lastChange = "2023-07-13 14:25:31 +0000";
layers = (
{
anchors = (
{
name = bottom;
pos = (949,0);
},
{
name = top;
pos = (949,1412);
}
);
layerId = "01C703B5-1257-45FB-9F79-4B1C4C3BA1BB";
shapes = (
{
closed = 1;
nodes = (
(1068,1412,l),
(1369,240,l),
(1390,240,l),
(1490,707,l),
(1666,1412,l),
(1874,1412,l),
(1486,0,l),
(1285,0,l),
(1084,735,l),
(961,1219,l),
(951,1219,l),
(828,735,l),
(627,0,l),
(426,0,l),
(38,1412,l),
(246,1412,l),
(422,707,l),
(522,240,l),
(543,240,l),
(844,1412,l),
(1067,1412,l)
);
}
);
width = 1898;
}
);
unicode = 87;
},
{
glyphname = X;
lastChange = "2023-07-13 14:25:31 +0000";
layers = (
{
anchors = (
{
name = bottom;
pos = (631,0);
},
{
name = top;
pos = (631,1412);
}
);
layerId = "01C703B5-1257-45FB-9F79-4B1C4C3BA1BB";
shapes = (
{
closed = 1;
nodes = (
(1242,0,l),
(1003,0,l),
(624,599,l),
(235,0,l),
(12,0,l),
(509,737,l),
(57,1412,l),
(291,1412,l),
(640,878,l),
(987,1412,l),
(1212,1412,l),
(754,738,l)
);
}
);
width = 1261;
}
);
unicode = 88;
},
{
glyphname = Y;
lastChange = "2023-07-13 14:25:31 +0000";
layers = (
{
anchors = (
{
name = bottom;
pos = (587,0);
},
{
name = top;
pos = (587,1412);
},
{
name = topleft;
pos = (20,1412);
}
);
layerId = "01C703B5-1257-45FB-9F79-4B1C4C3BA1BB";
shapes = (
{
closed = 1;
nodes = (
(594,723,l),
(963,1412,l),
(1183,1412,l),
(687,547,l),
(687,0,l),
(487,0,l),
(487,547,l),
(-9,1412,l),
(223,1412,l)
);
}
);
width = 1174;
}
);
unicode = 89;
},
{
glyphname = Z;
lastChange = "2023-07-13 14:25:31 +0000";
layers = (
{
anchors = (
{
name = bottom;
pos = (587,0);
},
{
name = center;
pos = (587,706);
},
{
name = top;
pos = (587,1412);
}
);
layerId = "01C703B5-1257-45FB-9F79-4B1C4C3BA1BB";
shapes = (
{
closed = 1;
nodes = (
(1082,0,l),
(89,0,l),
(89,169,l),
(831,1242,l),
(110,1242,l),
(110,1412,l),
(1064,1412,l),
(1064,1235,l),
(320,170,l),
(1082,170,l)
);
}
);
width = 1173;
}
);
unicode = 90;
},
{
glyphname = a;
lastChange = "2023-07-13 14:25:31 +0000";
layers = (
{
anchors = (
{
name = bottom;
pos = (520,0);
},
{
name = ogonek;
pos = (935,10);
},
{
name = top;
pos = (520,984);
}
);
layerId = "01C703B5-1257-45FB-9F79-4B1C4C3BA1BB";
shapes = (
{
closed = 1;
nodes = (
(154,883,l),
(261,950,o),
(408,1000,o),
(533,1000,cs),
(726,1000,o),
(887,910,o),
(887,685,cs),
(887,289,ls),
(887,149,o),
(897,61,o),
(910,0,c),
(741,0,l),
(737,23,o),
(734,86,o),
(731,159,c),
(643,17,o),
(520,-17,o),
(405,-17,cs),
(204,-17,o),
(77,89,o),
(77,267,cs),
(77,353,o),
(114,460,o),
(223,529,cs),
(338,601,o),
(513,602,o),
(653,602,cs),
(707,602,l),
(707,673,ls),
(707,814,o),
(626,860,o),
(526,860,cs),
(417,860,o),
(284,807,o),
(209,761,c)
);
},
{
closed = 1;
nodes = (
(696,257,o),
(706,338,o),
(706,471,c),
(677,471,ls),
(494,471,o),
(259,460,o),
(259,264,cs),
(259,195,o),
(306,122,o),
(417,122,cs),
(513,122,o),
(599,146,o),
(646,202,c)
);
}
);
width = 1039;
}
);
unicode = 97;
},
{
glyphname = ae;
lastChange = "2023-07-13 14:25:31 +0000";
layers = (
{
anchors = (
{
name = bottom;
pos = (829,0);
},
{
name = top;
pos = (829,984);
}
);
layerId = "01C703B5-1257-45FB-9F79-4B1C4C3BA1BB";
shapes = (
{
closed = 1;
nodes = (
(1529,116,l),
(1443,46,o),
(1347,-22,o),
(1179,-22,cs),
(1054,-22,o),
(884,34,o),
(804,216,c),
(724,36,o),
(549,-26,o),
(405,-26,cs),
(202,-26,o),
(76,90,o),
(76,279,cs),
(76,547,o),
(360,632,o),
(603,632,cs),
(639,632,o),
(673,630,o),
(706,627,c),
(706,688,ls),
(706,867,o),
(624,907,o),
(506,907,cs),
(402,907,o),
(328,862,o),
(247,808,c),
(215,845,o),
(181,881,o),
(149,916,c),
(262,1007,o),
(362,1060,o),
(507,1060,cs),
(656,1060,o),
(761,1013,o),
(833,893,c),
(915,1004,o),
(1042,1059,o),
(1152,1059,cs),
(1440,1059,o),
(1565,839,o),
(1565,580,cs),
(1565,480,l),
(898,480,l),
(901,292,o),
(981,139,o),
(1183,139,cs),
(1300,139,o),
(1392,174,o),
(1480,246,c)
);
},
{
closed = 1;
nodes = (
(1020,904,o),
(925,816,o),
(905,647,c),
(905,631,l),
(1368,631,l),
(1363,774,o),
(1317,904,o),
(1148,904,cs)
);
},
{
closed = 1;
nodes = (
(693,276,o),
(705,353,o),
(705,491,c),
(676,491,ls),
(532,491,o),
(269,488,o),
(269,292,cs),
(269,208,o),
(320,131,o),
(448,131,cs),
(532,131,o),
(602,160,o),
(645,217,c)
);
}
);
width = 1658;
}
);
unicode = 230;
},
{
glyphname = b;
lastChange = "2023-07-13 14:25:31 +0000";
layers = (
{
anchors = (
{
name = bottom;
pos = (579,0);
},
{
name = center;
pos = (579,492);
},
{
name = top;
pos = (579,984);
}
);
layerId = "01C703B5-1257-45FB-9F79-4B1C4C3BA1BB";
shapes = (
{
closed = 1;
nodes = (
(345,1357,l),
(345,1016,l),
(342,855,l),
(398,929,o),
(487,1000,o),
(622,1000,cs),
(933,1000,o),
(1058,771,o),
(1058,502,cs),
(1058,205,o),
(932,-17,o),
(615,-17,cs),
(528,-17,o),
(418,23,o),
(336,132,c),
(331,105,o),
(323,56,o),
(320,0,c),
(158,0,l),
(158,1215,l),
(56,1215,l),
(36,1357,l)
);
},
{
closed = 1;
nodes = (
(345,338,ls),
(345,250,o),
(427,122,o),
(619,122,cs),
(807,122,o),
(876,300,o),
(876,496,cs),
(876,676,o),
(825,859,o),
(613,859,cs),
(473,859,o),
(345,739,o),
(345,650,cs)
);
}
);
width = 1158;
}
);
unicode = 98;
},
{
glyphname = c;
lastChange = "2023-07-13 14:25:31 +0000";
layers = (
{
anchors = (
{
name = bottom;
pos = (480,0);
},
{
name = top;
pos = (480,984);
}
);
layerId = "01C703B5-1257-45FB-9F79-4B1C4C3BA1BB";
shapes = (
{
closed = 1;
nodes = (
(862,83,l),
(758,15,o),
(638,-17,o),
(530,-17,cs),
(309,-17,o),
(98,135,o),
(98,502,cs),
(98,842,o),
(332,1000,o),
(548,1000,cs),
(700,1000,o),
(853,930,o),
(896,734,c),
(737,708,l),
(708,825,o),
(630,859,o),
(551,859,cs),
(424,859,o),
(283,753,o),
(283,508,cs),
(283,264,o),
(362,122,o),
(547,122,cs),
(662,122,o),
(744,164,o),
(805,208,c)
);
}
);
width = 960;
}
);
unicode = 99;
},
{
glyphname = d;
lastChange = "2023-07-13 14:25:31 +0000";
layers = (
{
anchors = (
{
name = bottom;
pos = (580,0);
},
{
name = center;
pos = (580,492);
},
{
name = top;
pos = (580,2030);
},
{
name = topright;
pos = (1139,2030);
}
);
layerId = "01C703B5-1257-45FB-9F79-4B1C4C3BA1BB";
shapes = (
{
closed = 1;
nodes = (
(1000,1357,l),
(1000,0,l),
(838,0,l),
(831,53,ls),
(827,84,o),
(825,116,o),
(822,132,c),
(737,23,o),
(630,-17,o),
(543,-17,cs),
(225,-17,o),
(100,205,o),
(100,502,cs),
(100,771,o),
(223,1000,o),
(536,1000,cs),
(671,1000,o),
(760,929,o),
(816,855,c),
(813,1016,l),
(813,1215,l),
(710,1215,l),
(690,1357,l)
);
},
{
closed = 1;
nodes = (
(813,650,ls),
(813,739,o),
(685,859,o),
(545,859,cs),
(333,859,o),
(282,676,o),
(282,496,cs),
(282,300,o),
(351,122,o),
(539,122,cs),
(731,122,o),
(813,250,o),
(813,338,cs)
);
}
);
width = 1159;
}
);
unicode = 100;
},
{
glyphname = eth;
lastChange = "2023-07-13 14:25:31 +0000";
layers = (
{
anchors = (
{
name = bottom;
pos = (551,0);
},
{
name = top;
pos = (551,2030);
}
);
layerId = "01C703B5-1257-45FB-9F79-4B1C4C3BA1BB";
shapes = (
{
closed = 1;
nodes = (
(510,1076,l),
(697,1145,l),
(632,1229,o),
(549,1267,o),
(453,1267,cs),
(384,1267,o),
(296,1247,o),
(204,1206,c),
(151,1328,l),
(265,1381,o),
(370,1408,o),
(465,1408,cs),
(614,1408,o),
(751,1335,o),
(843,1202,c),
(1045,1280,l),
(1078,1173,l),
(896,1106,l),
(950,981,o),
(977,826,o),
(977,643,cs),
(977,119,o),
(744,-22,o),
(512,-22,cs),
(276,-22,o),
(79,129,o),
(79,435,cs),
(79,712,o),
(257,861,o),
(486,861,cs),
(608,861,o),
(712,808,o),
(798,702,c),
(798,854,o),
(782,957,o),
(749,1048,c),
(726,1041,o),
(677,1022,o),
(630,1004,cs),
(543,970,l)
);
},
{
closed = 1;
nodes = (
(355,723,o),
(254,614,o),
(254,436,cs),
(254,244,o),
(353,122,o),
(513,122,cs),
(673,122,o),
(788,264,o),
(788,449,cs),
(788,600,o),
(683,723,o),
(518,723,cs)
);
}
);
width = 1102;
}
);
unicode = 240;
},
{
glyphname = e;
lastChange = "2023-07-13 14:25:31 +0000";
layers = (
{
anchors = (
{
name = bottom;
pos = (522,0);
},
{
name = ogonek;
pos = (939,10);
},
{
name = top;
pos = (522,984);
}
);
layerId = "01C703B5-1257-45FB-9F79-4B1C4C3BA1BB";
shapes = (
{
closed = 1;
nodes = (
(925,79,l),
(805,15,o),
(684,-17,o),
(567,-17,cs),
(311,-17,o),
(99,143,o),
(99,490,cs),
(99,760,o),
(234,1000,o),
(538,1000,cs),
(826,1000,o),
(951,792,o),
(951,544,cs),
(951,463,l),
(285,463,l),
(285,445,ls),
(285,218,o),
(417,120,o),
(581,120,cs),
(673,120,o),
(772,150,o),
(868,207,c)
);
},
{
closed = 1;
nodes = (
(403,859,o),
(291,778,o),
(291,591,c),
(755,591,l),
(750,734,o),
(703,859,o),
(534,859,cs)
);
}
);
width = 1043;
}
);
unicode = 101;
},
{
glyphname = f;
lastChange = "2023-07-13 14:25:31 +0000";
layers = (
{
anchors = (
{
name = bottom;
pos = (343,0);
},
{
name = top;
pos = (343,2030);
}
);
layerId = "01C703B5-1257-45FB-9F79-4B1C4C3BA1BB";
shapes = (
{
closed = 1;
nodes = (
(649,840,l),
(420,840,l),
(420,0,l),
(231,0,l),
(231,840,l),
(43,840,l),
(43,966,l),
(232,983,l),
(232,1021,ls),
(232,1241,o),
(298,1356,o),
(535,1356,cs),
(591,1356,o),
(653,1346,o),
(709,1331,c),
(685,1185,l),
(644,1193,o),
(600,1200,o),
(561,1200,cs),
(439,1200,o),
(420,1146,o),
(420,1042,cs),
(420,984,l),
(649,984,l)
);
}
);
width = 686;
}
);
unicode = 102;
},
{
glyphname = g;
lastChange = "2023-07-13 14:25:31 +0000";
layers = (
{
anchors = (
{
name = bottom;
pos = (570,-639);
},
{
name = top;
pos = (570,984);
}
);
layerId = "01C703B5-1257-45FB-9F79-4B1C4C3BA1BB";
shapes = (
{
closed = 1;
nodes = (
(950,395,o),
(744,295,o),
(532,295,cs),
(463,295,o),
(402,303,o),
(347,320,c),
(310,279,o),
(289,235,o),
(289,214,cs),
(289,175,o),
(294,151,o),
(377,151,cs),
(524,151,ls),
(761,151,o),
(1060,124,o),
(1060,-97,cs),
(1060,-354,o),
(885,-479,o),
(549,-495,c),
(294,-495,o),
(96,-390,o),
(96,-250,cs),
(96,-190,o),
(138,-76,o),
(245,7,c),
(242,23,l),
(199,26,o),
(118,58,o),
(118,155,cs),
(118,226,o),
(162,306,o),
(251,394,c),
(151,454,o),
(106,543,o),
(106,635,cs),
(106,812,o),
(248,1000,o),
(531,1000,cs),
(656,1000,o),
(743,963,o),
(816,903,c),
(879,945,o),
(973,996,o),
(1079,999,c),
(1109,794,l),
(1080,797,l),
(1064,800,o),
(1047,799,o),
(1039,800,c),
(1000,800,o),
(950,792,o),
(909,780,c),
(945,733,o),
(950,690,o),
(950,647,cs)
);
},
{
closed = 1;
nodes = (
(646,-341,o),
(727,-319,o),
(787,-283,cs),
(847,-247,o),
(880,-195,o),
(880,-95,cs),
(880,-34,o),
(771,-2,o),
(558,-2,cs),
(494,-2,o),
(432,-2,o),
(367,-1,c),
(311,-65,o),
(279,-178,o),
(279,-239,cs),
(279,-307,o),
(377,-341,o),
(553,-341,cs)
);
},
{
closed = 1;
nodes = (
(279,519,o),
(358,433,o),
(530,433,cs),
(734,433,o),
(786,544,o),
(786,654,cs),
(786,758,o),
(725,864,o),
(536,864,cs),
(406,864,o),
(279,806,o),
(279,642,cs)
);
}
);
width = 1139;
}
);
unicode = 103;
},
{
glyphname = h;
lastChange = "2023-07-13 14:25:31 +0000";
layers = (
{
anchors = (
{
name = bottom;
pos = (575,0);
},
{
name = center;
pos = (575,1015);
},
{
name = top;
pos = (575,2030);
}
);
layerId = "01C703B5-1257-45FB-9F79-4B1C4C3BA1BB";
shapes = (
{
closed = 1;
nodes = (
(348,1357,l),
(348,1044,l),
(346,856,l),
(430,944,o),
(539,1000,o),
(652,1000,cs),
(891,1000,o),
(1002,861,o),
(1002,624,cs),
(1002,0,l),
(816,0,l),
(816,614,ls),
(816,729,o),
(781,859,o),
(608,859,cs),
(487,859,o),
(425,803,o),
(392,751,cs),
(357,695,o),
(348,610,o),
(348,526,cs),
(348,0,l),
(159,0,l),
(159,1215,l),
(57,1215,l),
(37,1357,l)
);
}
);
width = 1149;
}
);
unicode = 104;
},
{
glyphname = i;
lastChange = "2023-07-13 14:25:31 +0000";
layers = (
{
anchors = (
{
name = bottom;
pos = (276,0);
}
);
layerId = "01C703B5-1257-45FB-9F79-4B1C4C3BA1BB";
shapes = (
{
closed = 1;
nodes = (
(393,0,l),
(207,0,l),
(207,840,l),
(55,840,l),
(55,984,l),
(393,984,l)
);
},
{
closed = 1;
nodes = (
(411,1323,l),
(411,1157,l),
(189,1157,l),
(189,1323,l)
);
}
);
width = 552;
}
);
unicode = 105;
},
{
glyphname = idotless;
lastChange = "2023-07-13 14:25:31 +0000";
layers = (
{
anchors = (
{
name = bottom;
pos = (249,0);
},
{
name = ogonek;
pos = (447,10);
},
{
name = top;
pos = (249,984);
}
);
layerId = "01C703B5-1257-45FB-9F79-4B1C4C3BA1BB";
shapes = (
{
closed = 1;
nodes = (
(155,1019,l),
(339,1019,l),
(339,0,l),
(155,0,l)
);
}
);
width = 497;
}
);
unicode = 305;
},
{
glyphname = j;
layers = (
{
layerId = "01C703B5-1257-45FB-9F79-4B1C4C3BA1BB";
shapes = (
{
closed = 1;
nodes = (
(77,-429,o),
(37,-423,o),
(-3,-408,c),
(-3,-261,l),
(33,-272,o),
(61,-278,o),
(92,-278,cs),
(169,-278,o),
(210,-247,o),
(210,-127,cs),
(210,840,l),
(59,840,l),
(59,984,l),
(399,984,l),
(399,-124,ls),
(399,-289,o),
(330,-429,o),
(125,-429,cs)
);
},
{
closed = 1;
nodes = (
(420,1323,l),
(420,1157,l),
(199,1157,l),
(199,1323,l)
);
}
);
width = 558;
}
);
unicode = 106;
},
{
glyphname = k;
lastChange = "2023-07-13 14:25:31 +0000";
layers = (
{
anchors = (
{
name = bottom;
pos = (521,0);
},
{
name = top;
pos = (521,2030);
}
);
layerId = "01C703B5-1257-45FB-9F79-4B1C4C3BA1BB";
shapes = (
{
closed = 1;
nodes = (
(348,1357,l),
(348,551,l),
(478,620,ls),
(658,716,o),
(756,863,o),
(803,984,c),
(999,984,l),
(938,775,o),
(828,636,o),
(676,533,c),
(1028,0,l),
(817,0,l),
(517,473,l),
(348,387,l),
(348,0,l),
(158,0,l),
(158,1215,l),
(56,1215,l),
(36,1357,l)
);
}
);
width = 1041;
}
);
unicode = 107;
},
{
glyphname = l;
lastChange = "2023-07-13 14:25:31 +0000";
layers = (
{
anchors = (
{
name = bottom;
pos = (282,0);
},
{
name = center;
pos = (282,1015);
},
{
name = top;
pos = (282,2030);
},
{
name = topright;
pos = (543,2030);
}
);
layerId = "01C703B5-1257-45FB-9F79-4B1C4C3BA1BB";
shapes = (
{
closed = 1;
nodes = (
(369,1357,l),
(369,370,ls),
(369,166,o),
(369,131,o),
(524,131,c),
(494,-17,l),
(180,-17,o),
(180,113,o),
(180,421,cs),
(180,1215,l),
(78,1215,l),
(58,1357,l)
);
}
);
width = 563;
}
);
unicode = 108;
},
{
glyphname = lslash;
layers = (
{
layerId = "01C703B5-1257-45FB-9F79-4B1C4C3BA1BB";
shapes = (
{
closed = 1;
nodes = (
(392,571,l),
(35,443,l),
(35,606,l),
(392,735,l),
(392,1449,l),
(581,1449,l),
(581,804,l),
(943,934,l),
(943,770,l),
(581,639,l),
(581,0,l),
(392,0,l)
);
}
);
width = 973;
}
);
unicode = 322;
},
{
glyphname = m;
lastChange = "2023-07-13 14:25:31 +0000";
layers = (
{
anchors = (
{
name = bottom;
pos = (909,0);
},
{
name = top;
pos = (909,984);
}
);
layerId = "01C703B5-1257-45FB-9F79-4B1C4C3BA1BB";
shapes = (
{
closed = 1;
nodes = (
(203,0,l),
(203,840,l),
(81,840,l),
(71,984,l),
(378,984,l),
(388,857,l),
(484,961,o),
(595,1000,o),
(684,1000,cs),
(852,1000,o),
(941,931,o),
(997,832,c),
(1056,920,o),
(1163,1000,o),
(1320,1000,cs),
(1499,1000,o),
(1669,920,o),
(1669,646,cs),
(1669,0,l),
(1483,0,l),
(1483,637,ls),
(1483,793,o),
(1416,859,o),
(1279,859,cs),
(1046,859,o),
(1031,684,o),
(1031,552,cs),
(1031,0,l),
(844,0,l),
(844,646,ls),
(844,779,o),
(777,859,o),
(644,859,cs),
(535,859,o),
(468,806,o),
(439,764,cs),
(400,708,o),
(392,630,o),
(392,542,cs),
(392,0,l)
);
}
);
width = 1817;
}
);
unicode = 109;
},
{
glyphname = n;
lastChange = "2023-07-13 14:25:31 +0000";
layers = (
{
anchors = (
{
name = bottom;
pos = (598,0);
},
{
name = top;
pos = (598,984);
}
);
layerId = "01C703B5-1257-45FB-9F79-4B1C4C3BA1BB";
shapes = (
{
closed = 1;
nodes = (
(862,0,l),
(862,635,ls),
(862,780,o),
(787,859,o),
(650,859,cs),
(489,859,o),
(392,752,o),
(392,545,cs),
(392,0,l),
(203,0,l),
(203,840,l),
(101,840,l),
(81,984,l),
(378,984,l),
(388,858,l),
(469,950,o),
(550,1000,o),
(696,1000,cs),
(842,1000,o),
(1048,928,o),
(1048,650,cs),
(1048,0,l)
);
}
);
width = 1196;
}
);
unicode = 110;
},
{
glyphname = o;
lastChange = "2023-07-13 14:25:31 +0000";
layers = (
{
anchors = (
{
name = bottom;
pos = (565,0);
},
{
name = center;
pos = (565,492);
},
{
name = ogonek;
pos = (1016,10);
},
{
name = top;
pos = (565,984);
},
{
name = topright;
pos = (1109,984);
}
);
layerId = "01C703B5-1257-45FB-9F79-4B1C4C3BA1BB";
shapes = (
{
closed = 1;
nodes = (
(1031,190,o),
(867,-17,o),
(560,-17,cs),
(269,-17,o),
(98,184,o),
(98,483,cs),
(98,763,o),
(238,1000,o),
(572,1000,cs),
(900,1000,o),
(1031,751,o),
(1031,492,cs)
);
},
{
closed = 1;
nodes = (
(284,271,o),
(365,122,o),
(564,122,cs),
(725,122,o),
(844,230,o),
(844,488,cs),
(844,731,o),
(751,859,o),
(570,859,cs),
(421,859,o),
(284,752,o),
(284,484,cs)
);
}
);
width = 1129;
}
);
unicode = 111;
},
{
glyphname = oslash;
lastChange = "2023-07-13 14:25:31 +0000";
layers = (
{
anchors = (
{
name = top;
pos = (565,984);
}
);
layerId = "01C703B5-1257-45FB-9F79-4B1C4C3BA1BB";
shapes = (
{
closed = 1;
nodes = (
(1031,200,o),
(867,-19,o),
(560,-19,cs),
(480,-19,o),
(410,-3,o),
(349,26,c),
(262,-119,l),
(133,-85,l),
(244,99,l),
(148,191,o),
(98,328,o),
(98,503,cs),
(98,795,o),
(238,1041,o),
(572,1041,cs),
(656,1041,o),
(724,1024,o),
(784,995,c),
(890,1171,l),
(1021,1136,l),
(889,918,l),
(988,816,o),
(1031,667,o),
(1031,512,cs)
);
},
{
closed = 1;
nodes = (
(284,404,o),
(300,318,o),
(337,253,c),
(703,861,l),
(664,884,o),
(620,895,o),
(570,895,cs),
(421,895,o),
(284,784,o),
(284,504,cs)
);
},
{
closed = 1;
nodes = (
(725,127,o),
(844,239,o),
(844,508,cs),
(844,611,o),
(827,696,o),
(794,761,c),
(429,158,l),
(466,137,o),
(511,127,o),
(564,127,cs)
);
}
);
width = 1129;
}
);
unicode = 248;
},
{
glyphname = p;
lastChange = "2023-07-13 14:25:31 +0000";
layers = (
{
anchors = (
{
name = bottom;
pos = (580,0);
},
{
name = top;
pos = (580,984);
}
);
layerId = "01C703B5-1257-45FB-9F79-4B1C4C3BA1BB";
shapes = (
{
closed = 1;
nodes = (
(159,-400,l),
(159,691,l),
(159,984,l),
(330,984,l),
(343,837,l),
(431,962,o),
(556,1000,o),
(657,1000,cs),
(873,1000,o),
(1059,834,o),
(1059,490,cs),
(1059,145,o),
(866,-17,o),
(638,-17,cs),
(513,-17,o),
(417,34,o),
(341,107,c),
(346,-72,l),
(346,-400,l)
);
},
{
closed = 1;
nodes = (
(832,121,o),
(877,324,o),
(877,496,cs),
(877,700,o),
(813,859,o),
(621,859,cs),
(474,859,o),
(346,741,o),
(346,648,cs),
(346,348,ls),
(346,246,o),
(431,121,o),
(611,121,cs)
);
}
);
width = 1159;
}
);
unicode = 112;
},
{
glyphname = thorn;
lastChange = "2023-07-13 14:25:31 +0000";
layers = (
{
anchors = (
{
name = bottom;
pos = (583,0);
},
{
name = top;
pos = (583,984);
}
);
layerId = "01C703B5-1257-45FB-9F79-4B1C4C3BA1BB";
shapes = (
{
closed = 1;
nodes = (
(158,-416,l),
(158,170,o),
(159,321,o),
(159,471,cs),
(159,1449,l),
(345,1449,l),
(345,1124,l),
(343,892,l),
(404,966,o),
(500,1042,o),
(650,1042,cs),
(938,1042,o),
(1066,797,o),
(1066,522,cs),
(1066,263,o),
(951,-15,o),
(644,-15,cs),
(551,-15,o),
(430,29,o),
(340,132,c),
(345,19,l),
(345,-416,l)
);
},
{
closed = 1;
nodes = (
(344,361,o),
(372,135,o),
(609,135,cs),
(806,135,o),
(869,317,o),
(869,516,cs),
(869,685,o),
(825,895,o),
(613,895,cs),
(372,895,o),
(344,662,o),
(344,511,cs)
);
}
);
width = 1166;
}
);
unicode = 254;
},
{
glyphname = q;
lastChange = "2023-07-13 14:25:31 +0000";
layers = (
{
anchors = (
{
name = bottom;
pos = (578,0);
},
{
name = top;
pos = (578,984);
}
);
layerId = "01C703B5-1257-45FB-9F79-4B1C4C3BA1BB";
shapes = (
{
closed = 1;
nodes = (
(649,1000,o),
(748,915,o),
(816,836,c),
(829,984,l),
(1002,984,l),
(1002,952,o),
(997,792,o),
(997,772,cs),
(997,-400,l),
(811,-400,l),
(811,-72,ls),
(811,-12,o),
(814,74,o),
(817,111,c),
(724,20,o),
(611,-17,o),
(518,-17,cs),
(283,-17,o),
(101,146,o),
(101,491,cs),
(101,840,o),
(280,1000,o),
(499,1000,cs)
);
},
{
closed = 1;
nodes = (
(815,609,o),
(798,859,o),
(539,859,cs),
(323,859,o),
(287,645,o),
(287,496,cs),
(287,329,o),
(332,122,o),
(552,122,cs),
(755,122,o),
(815,262,o),
(815,457,cs)
);
}
);
width = 1156;
}
);
unicode = 113;
},
{
glyphname = r;
lastChange = "2023-07-13 14:25:31 +0000";
layers = (
{
anchors = (
{
name = bottom;
pos = (375,0);
},
{
name = top;
pos = (375,984);
}
);
layerId = "01C703B5-1257-45FB-9F79-4B1C4C3BA1BB";
shapes = (
{
closed = 1;
nodes = (
(159,732,ls),
(159,765,o),
(153,923,o),
(153,984,c),
(328,984,l),
(337,814,l),
(424,949,o),
(549,1000,o),
(635,1000,cs),
(662,1000,o),
(695,998,o),
(723,994,c),
(711,818,l),
(675,825,o),
(644,829,o),
(611,829,cs),
(424,829,o),
(348,703,o),
(348,524,cs),
(348,0,l),
(159,0,l)
);
}
);
width = 749;
}
);
unicode = 114;
},
{
glyphname = s;
lastChange = "2023-07-13 14:25:31 +0000";
layers = (
{
anchors = (
{
name = bottom;
pos = (461,0);
},
{
name = top;
pos = (461,984);
}
);
layerId = "01C703B5-1257-45FB-9F79-4B1C4C3BA1BB";
shapes = (
{
closed = 1;
nodes = (
(141,213,l),
(221,152,o),
(338,122,o),
(440,122,cs),
(549,122,o),
(643,167,o),
(643,266,cs),
(643,339,o),
(597,370,o),
(425,434,c),
(235,501,o),
(108,552,o),
(108,727,cs),
(108,912,o),
(282,1000,o),
(472,1000,cs),
(593,1000,o),
(718,965,o),
(818,896,c),
(757,773,l),
(670,829,o),
(559,859,o),
(476,859,cs),
(372,859,o),
(287,818,o),
(287,741,cs),
(287,669,o),
(361,625,o),
(494,581,c),
(738,495,o),
(829,427,o),
(829,280,cs),
(829,72,o),
(630,-17,o),
(428,-17,cs),
(299,-17,o),
(190,14,o),
(82,82,c)
);
}
);
width = 922;
}
);
unicode = 115;
},
{
glyphname = germandbls;
lastChange = "2023-07-13 14:25:31 +0000";
layers = (
{
anchors = (
{
name = bottom;
pos = (600,0);
},
{
name = top;
pos = (600,2030);
}
);
layerId = "01C703B5-1257-45FB-9F79-4B1C4C3BA1BB";
shapes = (
{
closed = 1;
nodes = (
(997,1067,o),
(939,1003,o),
(874,949,cs),
(775,866,o),
(743,841,o),
(743,798,cs),
(743,757,o),
(770,730,o),
(845,681,cs),
(978,594,o),
(1137,497,o),
(1137,318,cs),
(1137,94,o),
(970,-17,o),
(760,-17,cs),
(623,-17,o),
(492,25,o),
(455,181,c),
(561,262,l),
(600,182,o),
(675,134,o),
(764,134,cs),
(902,134,o),
(948,218,o),
(948,297,cs),
(948,413,o),
(856,461,o),
(733,538,cs),
(606,617,o),
(555,679,o),
(555,778,cs),
(555,888,o),
(626,947,o),
(705,1008,cs),
(762,1051,o),
(809,1086,o),
(809,1161,cs),
(809,1258,o),
(734,1321,o),
(585,1321,cs),
(433,1321,o),
(347,1260,o),
(347,1081,cs),
(347,0,l),
(159,0,l),
(159,1083,ls),
(159,1293,o),
(253,1467,o),
(590,1467,cs),
(798,1467,o),
(997,1388,o),
(997,1170,cs)
);
}
);
width = 1200;
}
);
unicode = 223;
},
{
glyphname = t;
lastChange = "2023-07-13 14:25:31 +0000";
layers = (
{
anchors = (
{
name = bottom;
pos = (350,0);
},
{
name = center;
pos = (350,492);
},
{
name = top;
pos = (350,984);
},
{
name = topright;
pos = (680,2030);
}
);
layerId = "01C703B5-1257-45FB-9F79-4B1C4C3BA1BB";
shapes = (
{
closed = 1;
nodes = (
(556,122,o),
(606,128,o),
(637,135,c),
(637,2,l),
(596,-6,o),
(532,-17,o),
(472,-17,cs),
(308,-17,o),
(206,37,o),
(206,243,cs),
(206,841,l),
(49,841,l),
(49,984,l),
(211,984,l),
(244,1220,l),
(395,1250,l),
(395,984,l),
(633,984,l),
(633,841,l),
(395,841,l),
(395,263,ls),
(395,188,o),
(413,122,o),
(519,122,cs)
);
}
);
width = 700;
}
);
unicode = 116;
},
{
glyphname = u;
lastChange = "2023-07-13 14:25:31 +0000";
layers = (
{
anchors = (
{
name = bottom;
pos = (574,0);
},
{
name = ogonek;
pos = (1032,10);
},
{
name = top;
pos = (574,984);
},
{
name = topright;
pos = (1127,984);
}
);
layerId = "01C703B5-1257-45FB-9F79-4B1C4C3BA1BB";
shapes = (
{
closed = 1;
nodes = (
(846,0,l),
(838,27,o),
(832,73,o),
(825,161,c),
(774,46,o),
(659,-17,o),
(523,-17,cs),
(270,-17,o),
(148,112,o),
(148,352,cs),
(148,984,l),
(334,984,l),
(334,351,ls),
(334,226,o),
(379,122,o),
(533,122,cs),
(744,122,o),
(800,263,o),
(800,447,cs),
(800,984,l),
(986,984,l),
(986,360,ls),
(986,168,o),
(995,72,o),
(1003,0,c)
);
}
);
width = 1147;
}
);
unicode = 117;
},
{
glyphname = v;
lastChange = "2023-07-13 14:25:31 +0000";
layers = (
{
anchors = (
{
name = bottom;
pos = (514,0);
},
{
name = top;
pos = (514,984);
}
);
layerId = "01C703B5-1257-45FB-9F79-4B1C4C3BA1BB";
shapes = (
{
closed = 1;
nodes = (
(405,0,l),
(17,984,l),
(220,984,l),
(393,519,l),
(516,173,l),
(638,518,l),
(809,984,l),
(1014,984,l),
(612,0,l)
);
}
);
width = 1028;
}
);
unicode = 118;
},
{
glyphname = w;
lastChange = "2023-07-13 14:25:31 +0000";
layers = (
{
anchors = (
{
name = bottom;
pos = (759,0);
},
{
name = top;
pos = (759,984);
}
);
layerId = "01C703B5-1257-45FB-9F79-4B1C4C3BA1BB";
shapes = (
{
closed = 1;
nodes = (
(866,984,l),
(1002,495,l),
(1093,155,l),
(1108,155,l),
(1187,547,l),
(1288,984,l),
(1478,984,l),
(1219,0,l),
(986,0,l),
(847,491,l),
(759,831,l),
(671,491,l),
(532,0,l),
(299,0,l),
(39,984,l),
(233,984,l),
(414,155,l),
(428,155,l),
(516,495,l),
(652,984,l)
);
}
);
width = 1517;
}
);
unicode = 119;
},
{
glyphname = x;
lastChange = "2023-07-13 14:25:31 +0000";
layers = (
{
anchors = (
{
name = bottom;
pos = (526,0);
},
{
name = top;
pos = (526,984);
}
);
layerId = "01C703B5-1257-45FB-9F79-4B1C4C3BA1BB";
shapes = (
{
closed = 1;
nodes = (
(408,507,l),
(55,984,l),
(284,984,l),
(533,620,l),
(785,984,l),
(1003,984,l),
(641,502,l),
(1010,0,l),
(781,0,l),
(516,381,l),
(250,0,l),
(36,0,l)
);
}
);
width = 1051;
}
);
unicode = 120;
},
{
glyphname = y;
lastChange = "2023-07-13 14:25:31 +0000";
layers = (
{
anchors = (
{
name = bottom;
pos = (513,0);
},
{
name = top;
pos = (513,984);
}
);
layerId = "01C703B5-1257-45FB-9F79-4B1C4C3BA1BB";
shapes = (
{
closed = 1;
nodes = (
(573,-84,l),
(525,-205,o),
(449,-367,o),
(299,-367,cs),
(272,-367,o),
(243,-362,o),
(202,-351,c),
(202,-218,l),
(233,-229,o),
(253,-232,o),
(268,-232,cs),
(344,-232,o),
(378,-130,o),
(408,-29,cs),
(418,5,l),
(14,984,l),
(220,984,l),
(396,519,l),
(516,188,l),
(809,984,l),
(1011,984,l)
);
}
);
width = 1025;
}
);
unicode = 121;
},
{
glyphname = z;
lastChange = "2023-07-13 14:25:31 +0000";
layers = (
{
anchors = (
{
name = bottom;
pos = (443,0);
},
{
name = center;
pos = (443,492);
},
{
name = top;
pos = (443,984);
}
);
layerId = "01C703B5-1257-45FB-9F79-4B1C4C3BA1BB";
shapes = (
{
closed = 1;
nodes = (
(791,0,l),
(85,0,l),
(85,159,l),
(574,840,l),
(114,840,l),
(114,984,l),
(784,984,l),
(784,836,l),
(286,144,l),
(791,144,l)
);
}
);
width = 885;
}
);
unicode = 122;
},
{
glyphname = g.alt;
lastChange = "2023-07-13 14:25:31 +0000";
layers = (
{
anchors = (
{
name = bottom;
pos = (583,-639);
},
{
name = top;
pos = (583,984);
}
);
layerId = "01C703B5-1257-45FB-9F79-4B1C4C3BA1BB";
shapes = (
{
closed = 1;
nodes = (
(815,609,o),
(798,859,o),
(539,859,cs),
(323,859,o),
(287,645,o),
(287,496,cs),
(287,329,o),
(332,141,o),
(552,141,cs),
(755,141,o),
(815,262,o),
(815,457,cs)
);
},
{
closed = 1;
nodes = (
(287,-160,l),
(360,-191,o),
(453,-212,o),
(542,-212,c),
(686,-209,o),
(815,-163,o),
(815,22,cs),
(815,129,l),
(722,38,o),
(611,0,o),
(518,0,cs),
(283,0,o),
(101,148,o),
(101,491,cs),
(101,840,o),
(280,1000,o),
(499,1000,cs),
(649,1000,o),
(748,915,o),
(816,836,c),
(829,984,l),
(1002,984,l),
(1002,948,o),
(997,790,o),
(997,772,cs),
(997,29,ls),
(997,-238,o),
(772,-353,o),
(543,-353,cs),
(454,-353,o),
(364,-336,o),
(287,-303,c)
);
}
);
width = 1166;
}
);
},
{
glyphname = fi;
lastChange = "2023-07-13 14:25:06 +0000";
layers = (
{
anchors = (
{
name = caret_1;
pos = (602.5,0);
}
);
layerId = "01C703B5-1257-45FB-9F79-4B1C4C3BA1BB";
shapes = (
{
closed = 1;
nodes = (
(1046,0,l),
(860,0,l),
(860,866,l),
(420,866,l),
(420,0,l),
(231,0,l),
(231,866,l),
(43,866,l),
(43,997,l),
(232,1014,l),
(232,1062,ls),
(232,1198,o),
(248,1265,o),
(293,1319,cs),
(342,1378,o),
(419,1412,o),
(535,1412,cs),
(591,1412,o),
(653,1401,o),
(709,1386,c),
(701,1330,o),
(693,1287,o),
(685,1234,c),
(644,1242,o),
(600,1249,o),
(561,1249,cs),
(439,1249,o),
(420,1194,o),
(420,1086,cs),
(420,1015,l),
(1046,1015,l)
);
},
{
closed = 1;
nodes = (
(1064,1377,l),
(1064,1205,l),
(842,1205,l),
(842,1377,l)
);
}
);
width = 1205;
}
);
unicode = 64257;
},
{
glyphname = fl;
lastChange = "2023-07-13 14:25:06 +0000";
layers = (
{
anchors = (
{
name = caret_1;
pos = (597,0);
}
);
layerId = "01C703B5-1257-45FB-9F79-4B1C4C3BA1BB";
shapes = (
{
closed = 1;
nodes = (
(836,1261,l),
(561,1261,ls),
(439,1261,o),
(420,1194,o),
(420,1086,cs),
(420,1015,l),
(649,1015,l),
(649,866,l),
(420,866,l),
(420,0,l),
(231,0,l),
(231,866,l),
(43,866,l),
(43,997,l),
(232,1014,l),
(232,1062,ls),
(232,1198,o),
(248,1265,o),
(293,1319,cs),
(342,1379,o),
(419,1412,o),
(535,1412,cs),
(1025,1412,l),
(1025,0,l),
(836,0,l)
);
}
);
width = 1194;
}
);
unicode = 64258;
},
{
glyphname = ordfeminine;
layers = (
{
layerId = "01C703B5-1257-45FB-9F79-4B1C4C3BA1BB";
shapes = (
{
closed = 1;
nodes = (
(202,791,o),
(108,858,o),
(108,982,cs),
(108,1136,o),
(245,1197,o),
(410,1197,cs),
(499,1197,l),
(499,1234,l),
(496,1310,o),
(449,1340,o),
(391,1340,cs),
(331,1340,o),
(265,1319,o),
(216,1287,c),
(168,1366,l),
(228,1415,o),
(323,1442,o),
(411,1442,cs),
(525,1442,o),
(624,1373,o),
(624,1214,cs),
(624,975,ls),
(624,928,o),
(624,887,o),
(626,856,cs),
(629,809,l),
(519,809,l),
(516,828,o),
(510,851,o),
(505,880,c),
(462,835,o),
(405,791,o),
(317,791,cs)
);
},
{
closed = 1;
nodes = (
(479,900,o),
(499,1009,o),
(499,1100,c),
(481,1100,o),
(443,1101,o),
(431,1101,cs),
(324,1101,o),
(239,1072,o),
(239,989,cs),
(239,944,o),
(267,900,o),
(345,900,cs)
);
}
);
width = 770;
}
);
unicode = 170;
},
{
glyphname = ordmasculine;
layers = (
{
layerId = "01C703B5-1257-45FB-9F79-4B1C4C3BA1BB";
shapes = (
{
closed = 1;
nodes = (
(681,920,o),
(565,789,o),
(376,789,cs),
(177,789,o),
(73,930,o),
(73,1115,cs),
(73,1302,o),
(174,1442,o),
(379,1442,cs),
(598,1442,o),
(681,1280,o),
(681,1118,cs)
);
},
{
closed = 1;
nodes = (
(208,1000,o),
(249,897,o),
(376,897,cs),
(471,897,o),
(544,965,o),
(544,1120,cs),
(544,1240,o),
(507,1337,o),
(379,1337,cs),
(256,1337,o),
(208,1244,o),
(208,1119,cs)
);
}
);
width = 753;
}
);
unicode = 186;
},
{
glyphname = Omega;
lastChange = "2023-07-13 14:20:29 +0000";
layers = (
{
layerId = "01C703B5-1257-45FB-9F79-4B1C4C3BA1BB";
shapes = (
{
closed = 1;
nodes = (
(112,153,l),
(390,153,l),
(257,284,o),
(139,476,o),
(139,736,cs),
(139,1113,o),
(390,1386,o),
(730,1386,cs),
(1089,1386,o),
(1308,1075,o),
(1308,747,cs),
(1308,478,o),
(1184,273,o),
(1051,153,c),
(1334,153,l),
(1334,0,l),
(845,0,l),
(845,112,l),
(989,211,o),
(1127,416,o),
(1127,715,cs),
(1127,961,o),
(989,1232,o),
(728,1232,cs),
(480,1232,o),
(321,1002,o),
(321,708,cs),
(321,429,o),
(459,208,o),
(601,112,c),
(601,0,l),
(112,0,l)
);
}
);
width = 1447;
}
);
unicode = 937;
},
{
glyphname = pi;
layers = (
{
layerId = "01C703B5-1257-45FB-9F79-4B1C4C3BA1BB";
shapes = (
{
closed = 1;
nodes = (
(962,861,l),
(962,292,ls),
(962,155,o),
(976,60,o),
(989,0,c),
(821,0,l),
(800,43,o),
(785,132,o),
(785,281,cs),
(785,861,l),
(461,861,l),
(449,614,o),
(393,195,o),
(321,0,c),
(146,0,l),
(218,221,o),
(274,614,o),
(286,861,c),
(182,858,o),
(123,850,o),
(76,837,c),
(49,960,l),
(108,992,o),
(196,1018,o),
(343,1018,cs),
(1129,1018,l),
(1112,861,l)
);
}
);
width = 1179;
}
);
unicode = 960;
},
{
glyphname = zero;
layers = (
{
layerId = "01C703B5-1257-45FB-9F79-4B1C4C3BA1BB";
shapes = (
{
closed = 1;
nodes = (
(131,1029,o),
(199,1442,o),
(582,1442,cs),
(942,1442,o),
(1034,1060,o),
(1034,708,cs),
(1034,356,o),
(942,-26,o),
(582,-26,cs),
(199,-26,o),
(131,387,o),
(131,708,cs)
);
},
{
closed = 1;
nodes = (
(842,1057,o),
(779,1268,o),
(583,1268,cs),
(370,1268,o),
(321,1014,o),
(321,708,cs),
(321,407,o),
(370,149,o),
(583,149,cs),
(779,149,o),
(842,365,o),
(842,708,cs)
);
}
);
width = 1164;
}
);
unicode = 48;
},
{
glyphname = one;
layers = (
{
layerId = "01C703B5-1257-45FB-9F79-4B1C4C3BA1BB";
shapes = (
{
closed = 1;
nodes = (
(368,967,l),
(369,991,o),
(369,1050,o),
(370,1100,cs),
(372,1196,l),
(264,1100,o),
(159,1034,o),
(87,993,c),
(42,1165,l),
(124,1210,o),
(332,1369,o),
(391,1412,c),
(556,1412,l),
(556,0,l),
(368,0,l)
);
}
);
width = 757;
}
);
unicode = 49;
},
{
glyphname = two;
layers = (
{
layerId = "01C703B5-1257-45FB-9F79-4B1C4C3BA1BB";
shapes = (
{
closed = 1;
nodes = (
(114,1144,l),
(201,1349,o),
(333,1442,o),
(548,1442,cs),
(761,1442,o),
(938,1323,o),
(938,1062,cs),
(938,900,o),
(841,746,o),
(560,454,c),
(321,170,l),
(968,170,l),
(968,0,l),
(99,0,l),
(99,174,l),
(443,572,l),
(604,738,o),
(746,908,o),
(746,1049,cs),
(746,1148,o),
(692,1268,o),
(532,1268,cs),
(367,1268,o),
(310,1157,o),
(278,1077,c)
);
}
);
width = 1077;
}
);
unicode = 50;
},
{
glyphname = three;
layers = (
{
layerId = "01C703B5-1257-45FB-9F79-4B1C4C3BA1BB";
shapes = (
{
closed = 1;
nodes = (
(375,-20,o),
(226,31,o),
(101,148,c),
(169,308,l),
(266,206,o),
(403,152,o),
(519,152,cs),
(665,152,o),
(793,227,o),
(793,394,cs),
(793,611,o),
(599,650,o),
(418,650,cs),
(395,650,o),
(377,649,o),
(364,649,cs),
(343,649,l),
(343,814,l),
(352,812,o),
(363,812,o),
(376,812,cs),
(567,812,o),
(762,845,o),
(762,1063,cs),
(762,1183,o),
(662,1268,o),
(514,1268,cs),
(426,1268,o),
(316,1227,o),
(191,1127,c),
(95,1257,l),
(228,1382,o),
(384,1442,o),
(525,1442,cs),
(759,1442,o),
(959,1307,o),
(959,1072,cs),
(959,936,o),
(879,805,o),
(716,736,c),
(938,666,o),
(990,483,o),
(990,389,cs),
(990,130,o),
(763,-20,o),
(516,-20,cs)
);
}
);
width = 1115;
}
);
unicode = 51;
},
{
glyphname = four;
layers = (
{
layerId = "01C703B5-1257-45FB-9F79-4B1C4C3BA1BB";
shapes = (
{
closed = 1;
nodes = (
(689,0,l),
(689,300,l),
(66,300,l),
(66,504,l),
(673,1412,l),
(875,1412,l),
(875,472,l),
(1074,472,l),
(1074,300,l),
(875,300,l),
(875,0,l)
);
},
{
closed = 1;
nodes = (
(240,472,l),
(689,472,l),
(689,1180,l),
(625,1078,l)
);
}
);
width = 1149;
}
);
unicode = 52;
},
{
glyphname = five;
layers = (
{
layerId = "01C703B5-1257-45FB-9F79-4B1C4C3BA1BB";
shapes = (
{
closed = 1;
nodes = (
(819,882,o),
(981,700,o),
(981,448,cs),
(981,163,o),
(797,-26,o),
(488,-26,cs),
(311,-26,o),
(160,54,o),
(110,208,c),
(228,303,l),
(276,194,o),
(402,149,o),
(494,149,cs),
(716,149,o),
(788,299,o),
(788,444,cs),
(788,623,o),
(687,720,o),
(506,720,cs),
(392,720,o),
(311,652,o),
(274,610,c),
(157,638,l),
(157,1412,l),
(897,1412,l),
(897,1240,l),
(346,1240,l),
(316,811,l),
(372,846,o),
(451,882,o),
(555,882,cs)
);
}
);
width = 1087;
}
);
unicode = 53;
},
{
glyphname = six;
layers = (
{
layerId = "01C703B5-1257-45FB-9F79-4B1C4C3BA1BB";
shapes = (
{
closed = 1;
nodes = (
(927,1207,l),
(831,1246,o),
(749,1268,o),
(677,1268,cs),
(424,1268,o),
(344,1062,o),
(323,723,c),
(379,811,o),
(484,883,o),
(625,883,cs),
(856,883,o),
(1031,732,o),
(1031,449,cs),
(1031,145,o),
(831,-26,o),
(587,-26,cs),
(263,-26,o),
(128,252,o),
(128,609,cs),
(128,972,o),
(232,1442,o),
(666,1442,cs),
(758,1442,o),
(866,1417,o),
(987,1361,c)
);
},
{
closed = 1;
nodes = (
(721,149,o),
(842,234,o),
(842,440,cs),
(842,568,o),
(791,726,o),
(597,726,cs),
(425,726,o),
(328,589,o),
(328,453,cs),
(328,290,o),
(426,149,o),
(590,149,cs)
);
}
);
width = 1141;
}
);
unicode = 54;
},
{
glyphname = seven;
layers = (
{
layerId = "01C703B5-1257-45FB-9F79-4B1C4C3BA1BB";
shapes = (
{
closed = 1;
nodes = (
(180,0,l),
(704,1240,l),
(60,1240,l),
(60,1412,l),
(904,1412,l),
(904,1253,l),
(395,0,l)
);
}
);
width = 959;
}
);
unicode = 55;
},
{
glyphname = eight;
layers = (
{
layerId = "01C703B5-1257-45FB-9F79-4B1C4C3BA1BB";
shapes = (
{
closed = 1;
nodes = (
(338,-26,o),
(125,95,o),
(125,358,cs),
(125,542,o),
(232,664,o),
(394,744,c),
(245,817,o),
(159,934,o),
(159,1083,cs),
(159,1251,o),
(289,1442,o),
(580,1442,cs),
(832,1442,o),
(1005,1305,o),
(1005,1086,cs),
(1005,937,o),
(918,816,o),
(757,748,c),
(880,684,o),
(1037,582,o),
(1037,366,cs),
(1037,158,o),
(885,-26,o),
(581,-26,cs)
);
},
{
closed = 1;
nodes = (
(773,149,o),
(843,260,o),
(843,372,cs),
(843,523,o),
(727,628,o),
(572,663,c),
(419,623,o),
(318,510,o),
(318,366,cs),
(318,255,o),
(392,149,o),
(580,149,cs)
);
},
{
closed = 1;
nodes = (
(349,937,o),
(451,857,o),
(581,833,c),
(712,857,o),
(817,946,o),
(817,1082,cs),
(817,1196,o),
(729,1273,o),
(582,1273,cs),
(447,1273,o),
(349,1202,o),
(349,1082,cs)
);
}
);
width = 1163;
}
);
unicode = 56;
},
{
glyphname = nine;
layers = (
{
layerId = "01C703B5-1257-45FB-9F79-4B1C4C3BA1BB";
shapes = (
{
closed = 1;
nodes = (
(231,214,l),
(330,171,o),
(413,149,o),
(480,149,cs),
(668,149,o),
(795,319,o),
(808,701,c),
(744,592,o),
(621,548,o),
(513,548,cs),
(282,548,o),
(105,699,o),
(105,985,cs),
(105,1288,o),
(302,1442,o),
(534,1442,cs),
(766,1442,o),
(1004,1300,o),
(1004,768,cs),
(1004,252,o),
(794,-26,o),
(491,-26,cs),
(395,-26,o),
(288,4,o),
(167,55,c)
);
},
{
closed = 1;
nodes = (
(698,701,o),
(798,826,o),
(798,970,cs),
(798,1143,o),
(694,1268,o),
(542,1268,cs),
(391,1268,o),
(295,1162,o),
(295,984,cs),
(295,809,o),
(388,701,o),
(541,701,cs)
);
}
);
width = 1133;
}
);
unicode = 57;
},
{
glyphname = fraction;
layers = (
{
layerId = "01C703B5-1257-45FB-9F79-4B1C4C3BA1BB";
shapes = (
{
closed = 1;
nodes = (
(933,1400,l),
(121,-30,l),
(-28,-30,l),
(785,1400,l)
);
}
);
width = 910;
}
);
unicode = 8260;
},
{
glyphname = onesuperior;
layers = (
{
layerId = "01C703B5-1257-45FB-9F79-4B1C4C3BA1BB";
shapes = (
{
closed = 1;
nodes = (
(302,849,l),
(303,869,o),
(303,954,o),
(304,1037,cs),
(306,1196,l),
(238,1139,o),
(162,1091,o),
(81,1044,c),
(44,1182,l),
(112,1218,o),
(281,1345,o),
(321,1377,c),
(452,1377,l),
(452,285,l),
(302,285,l)
);
}
);
width = 632;
}
);
unicode = 185;
},
{
glyphname = twosuperior;
layers = (
{
layerId = "01C703B5-1257-45FB-9F79-4B1C4C3BA1BB";
shapes = (
{
closed = 1;
nodes = (
(123,1159,l),
(201,1333,o),
(293,1399,o),
(454,1399,cs),
(634,1399,o),
(782,1301,o),
(782,1089,cs),
(782,965,o),
(708,836,o),
(487,612,cs),
(300,422,l),
(804,422,l),
(804,285,l),
(112,285,l),
(112,425,l),
(386,708,ls),
(523,850,o),
(627,976,o),
(627,1093,cs),
(627,1172,o),
(586,1263,o),
(457,1263,cs),
(328,1263,o),
(286,1175,o),
(257,1109,c)
);
}
);
width = 925;
}
);
unicode = 178;
},
{
glyphname = threesuperior;
layers = (
{
layerId = "01C703B5-1257-45FB-9F79-4B1C4C3BA1BB";
shapes = (
{
closed = 1;
nodes = (
(203,546,l),
(263,461,o),
(356,418,o),
(448,418,cs),
(556,418,o),
(652,482,o),
(652,610,cs),
(652,754,o),
(524,795,o),
(396,795,cs),
(318,795,l),
(318,926,l),
(329,925,o),
(342,924,o),
(354,924,cs),
(493,924,o),
(628,960,o),
(628,1111,cs),
(628,1218,o),
(544,1268,o),
(451,1268,cs),
(363,1268,o),
(270,1223,o),
(230,1136,c),
(110,1181,l),
(174,1328,o),
(323,1399,o),
(464,1399,cs),
(628,1399,o),
(784,1303,o),
(784,1117,cs),
(784,1017,o),
(716,923,o),
(600,863,c),
(770,807,o),
(807,676,o),
(807,607,cs),
(807,416,o),
(636,292,o),
(447,292,cs),
(319,292,o),
(182,349,o),
(86,482,c)
);
}
);
width = 933;
}
);
unicode = 179;
},
{
glyphname = foursuperior;
layers = (
{
layerId = "01C703B5-1257-45FB-9F79-4B1C4C3BA1BB";
shapes = (
{
closed = 1;
nodes = (
(557,285,l),
(557,523,l),
(64,523,l),
(64,685,l),
(546,1390,l),
(707,1390,l),
(707,662,l),
(864,662,l),
(864,523,l),
(707,523,l),
(707,285,l)
);
},
{
closed = 1;
nodes = (
(206,662,l),
(557,662,l),
(557,1217,l),
(437,1012,l)
);
}
);
width = 944;
}
);
unicode = 8308;
},
{
glyphname = period;
layers = (
{
layerId = "01C703B5-1257-45FB-9F79-4B1C4C3BA1BB";
shapes = (
{
closed = 1;
nodes = (
(143,239,l),
(374,239,l),
(374,0,l),
(143,0,l)
);
}
);
width = 518;
}
);
unicode = 46;
},
{
glyphname = comma;
layers = (
{
layerId = "01C703B5-1257-45FB-9F79-4B1C4C3BA1BB";
shapes = (
{
closed = 1;
nodes = (
(57,-248,l),
(169,244,l),
(391,244,l),
(197,-248,l)
);
}
);
width = 519;
}
);
unicode = 44;
},
{
glyphname = colon;
layers = (
{
layerId = "01C703B5-1257-45FB-9F79-4B1C4C3BA1BB";
shapes = (
{
closed = 1;
nodes = (
(143,1024,l),
(374,1024,l),
(374,785,l),
(143,785,l)
);
},
{
closed = 1;
nodes = (
(143,239,l),
(374,239,l),
(374,0,l),
(143,0,l)
);
}
);
width = 518;
}
);
unicode = 58;
},
{
glyphname = semicolon;
layers = (
{
layerId = "01C703B5-1257-45FB-9F79-4B1C4C3BA1BB";
shapes = (
{
closed = 1;
nodes = (
(97,-233,l),
(207,229,l),
(403,229,l),
(220,-233,l)
);
},
{
closed = 1;
nodes = (
(191,1024,l),
(422,1024,l),
(422,785,l),
(191,785,l)
);
}
);
width = 579;
}
);
unicode = 59;
},
{
glyphname = ellipsis;
layers = (
{
layerId = "01C703B5-1257-45FB-9F79-4B1C4C3BA1BB";
shapes = (
{
closed = 1;
nodes = (
(144,248,l),
(369,248,l),
(369,0,l),
(144,0,l)
);
},
{
closed = 1;
nodes = (
(762,248,l),
(989,248,l),
(989,0,l),
(762,0,l)
);
},
{
closed = 1;
nodes = (
(1382,248,l),
(1608,248,l),
(1608,0,l),
(1382,0,l)
);
}
);
width = 1752;
}
);
unicode = 8230;
},
{
glyphname = exclam;
layers = (
{
layerId = "01C703B5-1257-45FB-9F79-4B1C4C3BA1BB";
shapes = (
{
closed = 1;
nodes = (
(321,339,l),
(209,339,l),
(209,1394,l),
(369,1394,l)
);
},
{
closed = 1;
nodes = (
(161,211,l),
(369,211,l),
(369,0,l),
(161,0,l)
);
}
);
width = 530;
}
);
unicode = 33;
},
{
glyphname = exclamdown;
layers = (
{
layerId = "01C703B5-1257-45FB-9F79-4B1C4C3BA1BB";
shapes = (
{
closed = 1;
nodes = (
(370,0,l),
(162,0,l),
(162,1055,l),
(322,1055,l)
);
},
{
closed = 1;
nodes = (
(162,1394,l),
(370,1394,l),
(370,1183,l),
(162,1183,l)
);
}
);
width = 531;
}
);
unicode = 161;
},
{
glyphname = question;
layers = (
{
layerId = "01C703B5-1257-45FB-9F79-4B1C4C3BA1BB";
shapes = (
{
closed = 1;
nodes = (
(283,363,l),
(283,442,ls),
(283,575,o),
(300,648,o),
(412,760,cs),
(528,876,o),
(608,961,o),
(608,1073,cs),
(608,1230,o),
(460,1268,o),
(372,1268,cs),
(312,1268,o),
(219,1253,o),
(95,1198,c),
(65,1373,l),
(145,1408,o),
(249,1442,o),
(378,1442,cs),
(640,1442,o),
(803,1310,o),
(803,1086,cs),
(803,920,o),
(731,840,o),
(580,700,cs),
(465,593,o),
(442,566,o),
(442,433,cs),
(442,363,l)
);
},
{
closed = 1;
nodes = (
(256,211,l),
(469,211,l),
(469,0,l),
(256,0,l)
);
}
);
width = 882;
}
);
unicode = 63;
},
{
glyphname = periodcentered;
lastChange = "2023-07-13 14:20:29 +0000";
layers = (
{
layerId = "01C703B5-1257-45FB-9F79-4B1C4C3BA1BB";
shapes = (
{
closed = 1;
nodes = (
(143,697,l),
(367,697,l),
(367,448,l),
(143,448,l)
);
}
);
width = 510;
}
);
unicode = 183;
},
{
glyphname = bullet;
layers = (
{
layerId = "01C703B5-1257-45FB-9F79-4B1C4C3BA1BB";
shapes = (
{
closed = 1;
nodes = (
(106,906,o),
(239,1024,o),
(403,1024,cs),
(567,1024,o),
(701,905,o),
(701,713,cs),
(701,525,o),
(569,403,o),
(403,403,cs),
(238,403,o),
(106,525,o),
(106,713,cs)
);
}
);
width = 807;
}
);
unicode = 8226;
},
{
glyphname = asterisk;
layers = (
{
layerId = "01C703B5-1257-45FB-9F79-4B1C4C3BA1BB";
shapes = (
{
closed = 1;
nodes = (
(211,1334,l),
(336,1411,l),
(473,1183,l),
(610,1411,l),
(737,1334,l),
(604,1118,l),
(839,1118,l),
(839,969,l),
(603,969,l),
(736,754,l),
(610,677,l),
(473,904,l),
(336,677,l),
(210,754,l),
(340,969,l),
(109,969,l),
(109,1118,l),
(341,1118,l)
);
}
);
width = 948;
}
);
unicode = 42;
},
{
glyphname = numbersign;
layers = (
{
layerId = "01C703B5-1257-45FB-9F79-4B1C4C3BA1BB";
shapes = (
{
closed = 1;
nodes = (
(943,824,l),
(888,539,l),
(1113,539,l),
(1113,393,l),
(861,393,l),
(787,0,l),
(627,0,l),
(701,393,l),
(459,393,l),
(384,0,l),
(226,0,l),
(300,393,l),
(85,393,l),
(85,539,l),
(327,539,l),
(381,824,l),
(159,824,l),
(159,971,l),
(409,971,l),
(483,1377,l),
(644,1377,l),
(568,971,l),
(813,971,l),
(888,1377,l),
(1048,1377,l),
(969,971,l),
(1187,971,l),
(1187,824,l)
);
},
{
closed = 1;
nodes = (
(486,539,l),
(729,539,l),
(784,824,l),
(540,824,l)
);
}
);
width = 1274;
}
);
unicode = 35;
},
{
glyphname = slash;
layers = (
{
layerId = "01C703B5-1257-45FB-9F79-4B1C4C3BA1BB";
shapes = (
{
closed = 1;
nodes = (
(719,1442,l),
(234,-26,l),
(73,-26,l),
(562,1442,l)
);
}
);
width = 792;
}
);
unicode = 47;
},
{
glyphname = backslash;
layers = (
{
layerId = "01C703B5-1257-45FB-9F79-4B1C4C3BA1BB";
shapes = (
{
closed = 1;
nodes = (
(231,1412,l),
(392,933,o),
(554,461,o),
(717,-16,c),
(560,-16,l),
(73,1412,l)
);
}
);
width = 792;
}
);
unicode = 92;
},
{
glyphname = hyphen;
layers = (
{
layerId = "01C703B5-1257-45FB-9F79-4B1C4C3BA1BB";
shapes = (
{
closed = 1;
nodes = (
(143,439,l),
(143,606,l),
(632,606,l),
(632,439,l)
);
}
);
width = 776;
}
);
unicode = 45;
},
{
glyphname = endash;
layers = (
{
layerId = "01C703B5-1257-45FB-9F79-4B1C4C3BA1BB";
shapes = (
{
closed = 1;
nodes = (
(149,444,l),
(149,608,l),
(1057,608,l),
(1057,444,l)
);
}
);
width = 1207;
}
);
unicode = 8211;
},
{
glyphname = emdash;
layers = (
{
layerId = "01C703B5-1257-45FB-9F79-4B1C4C3BA1BB";
shapes = (
{
closed = 1;
nodes = (
(150,444,l),
(150,608,l),
(1756,608,l),
(1756,444,l)
);
}
);
width = 1906;
}
);
unicode = 8212;
},
{
glyphname = underscore;
layers = (
{
layerId = "01C703B5-1257-45FB-9F79-4B1C4C3BA1BB";
shapes = (
{
closed = 1;
nodes = (
(1012,-273,l),
(105,-273,l),
(105,-145,l),
(1012,-145,l)
);
}
);
width = 1116;
}
);
unicode = 95;
},
{
glyphname = parenleft;
layers = (
{
layerId = "01C703B5-1257-45FB-9F79-4B1C4C3BA1BB";
shapes = (
{
closed = 1;
nodes = (
(100,915,o),
(233,1260,o),
(353,1449,c),
(508,1449,l),
(380,1204,o),
(288,864,o),
(288,601,cs),
(288,317,o),
(359,75,o),
(511,-261,c),
(358,-261,l),
(211,-12,o),
(100,302,o),
(100,598,cs)
);
}
);
width = 579;
}
);
unicode = 40;
},
{
glyphname = parenright;
layers = (
{
layerId = "01C703B5-1257-45FB-9F79-4B1C4C3BA1BB";
shapes = (
{
closed = 1;
nodes = (
(220,1449,l),
(367,1196,o),
(479,879,o),
(479,583,cs),
(479,269,o),
(347,-80,o),
(227,-261,c),
(72,-261,l),
(200,-4,o),
(290,282,o),
(290,582,cs),
(290,870,o),
(219,1110,o),
(67,1449,c)
);
}
);
width = 579;
}
);
unicode = 41;
},
{
glyphname = braceleft;
layers = (
{
layerId = "01C703B5-1257-45FB-9F79-4B1C4C3BA1BB";
shapes = (
{
closed = 1;
nodes = (
(646,-268,l),
(338,-255,o),
(274,-90,o),
(274,115,cs),
(274,289,ls),
(274,462,o),
(174,508,o),
(22,521,c),
(22,654,l),
(241,673,o),
(274,760,o),
(274,887,cs),
(274,1068,ls),
(274,1284,o),
(350,1429,o),
(645,1442,c),
(653,1311,l),
(482,1290,o),
(448,1213,o),
(448,1077,cs),
(448,902,ls),
(448,771,o),
(414,643,o),
(238,587,c),
(415,531,o),
(448,400,o),
(448,274,cs),
(448,161,ls),
(448,-2,o),
(447,-118,o),
(653,-134,c)
);
}
);
width = 717;
}
);
unicode = 123;
},
{
glyphname = braceright;
layers = (
{
layerId = "01C703B5-1257-45FB-9F79-4B1C4C3BA1BB";
shapes = (
{
closed = 1;
nodes = (
(64,-134,l),
(270,-118,o),
(269,-2,o),
(269,161,cs),
(269,274,ls),
(269,400,o),
(302,531,o),
(479,587,c),
(303,643,o),
(269,771,o),
(269,902,cs),
(269,1077,ls),
(269,1213,o),
(235,1290,o),
(64,1311,c),
(72,1442,l),
(367,1429,o),
(443,1284,o),
(443,1068,cs),
(443,887,ls),
(443,760,o),
(476,673,o),
(695,654,c),
(695,521,l),
(543,508,o),
(443,462,o),
(443,289,cs),
(443,115,ls),
(443,-90,o),
(379,-255,o),
(71,-268,c)
);
}
);
width = 717;
}
);
unicode = 125;
},
{
glyphname = bracketleft;
layers = (
{
layerId = "01C703B5-1257-45FB-9F79-4B1C4C3BA1BB";
shapes = (
{
closed = 1;
nodes = (
(540,-272,l),
(172,-272,l),
(172,1442,l),
(540,1442,l),
(540,1308,l),
(344,1308,l),
(344,-135,l),
(540,-135,l)
);
}
);
width = 609;
}
);
unicode = 91;
},
{
glyphname = bracketright;
layers = (
{
layerId = "01C703B5-1257-45FB-9F79-4B1C4C3BA1BB";
shapes = (
{
closed = 1;
nodes = (
(70,-135,l),
(265,-135,l),
(265,1308,l),
(70,1308,l),
(70,1442,l),
(438,1442,l),
(438,-272,l),
(70,-272,l)
);
}
);
width = 610;
}
);
unicode = 93;
},
{
glyphname = quotesinglbase;
layers = (
{
layerId = "01C703B5-1257-45FB-9F79-4B1C4C3BA1BB";
shapes = (
{
closed = 1;
nodes = (
(55,-256,l),
(166,223,l),
(387,223,l),
(194,-256,l)
);
}
);
width = 511;
}
);
unicode = 8218;
},
{
glyphname = quotedblbase;
layers = (
{
layerId = "01C703B5-1257-45FB-9F79-4B1C4C3BA1BB";
shapes = (
{
closed = 1;
nodes = (
(419,-256,l),
(529,223,l),
(751,223,l),
(558,-256,l)
);
},
{
closed = 1;
nodes = (
(55,-256,l),
(165,223,l),
(387,223,l),
(194,-256,l)
);
}
);
width = 875;
}
);
unicode = 8222;
},
{
glyphname = quotedblleft;
layers = (
{
layerId = "01C703B5-1257-45FB-9F79-4B1C4C3BA1BB";
shapes = (
{
closed = 1;
nodes = (
(454,923,l),
(652,1412,l),
(793,1412,l),
(674,923,l)
);
},
{
closed = 1;
nodes = (
(92,923,l),
(290,1412,l),
(431,1412,l),
(312,923,l)
);
}
);
width = 878;
}
);
unicode = 8220;
},
{
glyphname = quotedblright;
layers = (
{
layerId = "01C703B5-1257-45FB-9F79-4B1C4C3BA1BB";
shapes = (
{
closed = 1;
nodes = (
(474,923,l),
(585,1412,l),
(808,1412,l),
(612,923,l)
);
},
{
closed = 1;
nodes = (
(109,923,l),
(220,1412,l),
(443,1412,l),
(247,923,l)
);
}
);
width = 866;
}
);
unicode = 8221;
},
{
glyphname = quoteleft;
layers = (
{
layerId = "01C703B5-1257-45FB-9F79-4B1C4C3BA1BB";
shapes = (
{
closed = 1;
nodes = (
(92,923,l),
(290,1412,l),
(431,1412,l),
(312,923,l)
);
}
);
width = 517;
}
);
unicode = 8216;
},
{
glyphname = quoteright;
layers = (
{
layerId = "01C703B5-1257-45FB-9F79-4B1C4C3BA1BB";
shapes = (
{
closed = 1;
nodes = (
(109,923,l),
(220,1412,l),
(443,1412,l),
(247,923,l)
);
}
);
width = 501;
}
);
unicode = 8217;
},
{
glyphname = guillemetleft;
lastChange = "2023-07-13 14:20:29 +0000";
layers = (
{
layerId = "01C703B5-1257-45FB-9F79-4B1C4C3BA1BB";
shapes = (
{
closed = 1;
nodes = (
(476,495,l),
(476,513,l),
(730,900,l),
(876,863,l),
(670,503,l),
(877,141,l),
(730,108,l)
);
},
{
closed = 1;
nodes = (
(95,495,l),
(95,514,l),
(347,900,l),
(493,863,l),
(285,503,l),
(494,141,l),
(347,107,l)
);
}
);
width = 989;
}
);
unicode = 171;
},
{
glyphname = guillemetright;
lastChange = "2023-07-13 14:20:29 +0000";
layers = (
{
layerId = "01C703B5-1257-45FB-9F79-4B1C4C3BA1BB";
shapes = (
{
closed = 1;
nodes = (
(322,502,l),
(114,863,l),
(260,900,l),
(514,511,l),
(514,492,l),
(260,107,l),
(116,141,l)
);
},
{
closed = 1;
nodes = (
(705,502,l),
(497,863,l),
(643,900,l),
(898,511,l),
(896,492,l),
(642,107,l),
(498,141,l)
);
}
);
width = 991;
}
);
unicode = 187;
},
{
glyphname = guilsinglleft;
layers = (
{
layerId = "01C703B5-1257-45FB-9F79-4B1C4C3BA1BB";
shapes = (
{
closed = 1;
nodes = (
(347,108,l),
(93,495,l),
(93,514,l),
(348,900,l),
(490,863,l),
(282,503,l),
(492,141,l)
);
}
);
width = 605;
}
);
unicode = 8249;
},
{
glyphname = guilsinglright;
layers = (
{
layerId = "01C703B5-1257-45FB-9F79-4B1C4C3BA1BB";
shapes = (
{
closed = 1;
nodes = (
(319,502,l),
(112,863,l),
(258,900,l),
(512,511,l),
(512,493,l),
(258,107,l),
(113,141,l)
);
}
);
width = 605;
}
);
unicode = 8250;
},
{
glyphname = quotedbl;
layers = (
{
layerId = "01C703B5-1257-45FB-9F79-4B1C4C3BA1BB";
shapes = (
{
closed = 1;
nodes = (
(308,1377,l),
(308,875,l),
(169,875,l),
(123,1377,l)
);
},
{
closed = 1;
nodes = (
(638,1377,l),
(593,875,l),
(474,875,l),
(474,1377,l)
);
}
);
width = 762;
}
);
unicode = 34;
},
{
glyphname = quotesingle;
layers = (
{
layerId = "01C703B5-1257-45FB-9F79-4B1C4C3BA1BB";
shapes = (
{
closed = 1;
nodes = (
(267,875,l),
(149,875,l),
(149,1377,l),
(312,1377,l)
);
}
);
width = 437;
}
);
unicode = 39;
},
{
glyphname = florin;
layers = (
{
layerId = "01C703B5-1257-45FB-9F79-4B1C4C3BA1BB";
shapes = (
{
closed = 1;
nodes = (
(105,823,l),
(281,823,l),
(324,1030,ls),
(357,1189,o),
(414,1342,o),
(651,1342,cs),
(686,1342,o),
(718,1338,o),
(763,1331,c),
(739,1180,l),
(716,1180,o),
(696,1186,o),
(667,1186,cs),
(552,1186,o),
(520,1102,o),
(503,1023,cs),
(460,823,l),
(665,823,l),
(656,776,o),
(646,727,o),
(635,680,c),
(435,680,l),
(318,54,ls),
(265,-230,o),
(215,-384,o),
(-47,-384,cs),
(-58,-384,o),
(-73,-384,o),
(-97,-380,c),
(-88,-324,o),
(-79,-279,o),
(-71,-228,c),
(-55,-231,o),
(-44,-232,o),
(-37,-232,cs),
(111,-232,o),
(101,-111,o),
(141,104,c),
(252,680,l),
(78,680,l)
);
}
);
width = 701;
}
);
unicode = 402;
},
{
glyphname = at;
layers = (
{
layerId = "01C703B5-1257-45FB-9F79-4B1C4C3BA1BB";
shapes = (
{
closed = 1;
nodes = (
(389,-77,o),
(98,202,o),
(98,647,cs),
(98,1137,o),
(451,1442,o),
(888,1442,cs),
(1251,1442,o),
(1554,1220,o),
(1554,807,cs),
(1554,524,o),
(1388,300,o),
(1185,300,cs),
(1084,300,o),
(1023,360,o),
(1019,485,c),
(961,397,o),
(888,300,o),
(750,300,cs),
(591,300,o),
(469,416,o),
(469,601,cs),
(469,845,o),
(598,1090,o),
(862,1090,cs),
(930,1090,o),
(998,1060,o),
(1058,1000,c),
(1057,1015,o),
(1063,1032,o),
(1065,1045,cs),
(1069,1068,l),
(1208,1049,l),
(1134,646,l),
(1123,595,o),
(1120,553,o),
(1120,521,cs),
(1120,441,o),
(1148,413,o),
(1209,413,cs),
(1326,413,o),
(1431,585,o),
(1431,813,cs),
(1431,1153,o),
(1184,1322,o),
(888,1322,cs),
(499,1322,o),
(221,1063,o),
(221,647,cs),
(221,267,o),
(462,42,o),
(837,42,cs),
(1021,42,o),
(1180,108,o),
(1316,183,c),
(1347,72,l),
(1200,-16,o),
(1039,-77,o),
(834,-77,cs)
);
},
{
closed = 1;
nodes = (
(947,423,o),
(974,632,o),
(1002,733,c),
(1038,940,l),
(969,954,ls),
(932,961,o),
(899,969,o),
(880,969,cs),
(712,969,o),
(617,775,o),
(617,626,c),
(620,497,o),
(677,423,o),
(782,423,cs)
);
}
);
width = 1642;
}
);
unicode = 64;
},
{
glyphname = ampersand;
layers = (
{
layerId = "01C703B5-1257-45FB-9F79-4B1C4C3BA1BB";
shapes = (
{
closed = 1;
nodes = (
(97,583,o),
(222,697,o),
(380,807,c),
(312,881,o),
(228,985,o),
(228,1135,cs),
(228,1327,o),
(361,1449,o),
(598,1449,cs),
(796,1449,o),
(959,1354,o),
(959,1150,cs),
(959,969,o),
(804,850,o),
(687,775,c),
(1015,441,l),
(1081,537,o),
(1113,635,o),
(1126,812,c),
(1319,812,l),
(1300,589,o),
(1247,453,o),
(1138,315,c),
(1444,1,l),
(1185,1,l),
(1014,171,l),
(881,51,o),
(742,-22,o),
(552,-22,cs),
(264,-22,o),
(97,141,o),
(97,377,cs)
);
},
{
closed = 1;
nodes = (
(724,151,o),
(822,228,o),
(889,293,c),
(804,374,o),
(718,461,o),
(638,545,cs),
(505,684,l),
(361,583,o),
(300,499,o),
(300,383,cs),
(300,221,o),
(437,151,o),
(568,151,cs)
);
},
{
closed = 1;
nodes = (
(428,1064,o),
(475,990,o),
(563,902,c),
(658,963,o),
(758,1044,o),
(758,1147,cs),
(758,1215,o),
(706,1285,o),
(598,1285,cs),
(496,1285,o),
(428,1223,o),
(428,1140,cs)
);
}
);
width = 1452;
}
);
unicode = 38;
},
{
glyphname = paragraph;
layers = (
{
layerId = "01C703B5-1257-45FB-9F79-4B1C4C3BA1BB";
shapes = (
{
closed = 1;
nodes = (
(874,-290,l),
(874,1261,l),
(671,1261,l),
(671,-290,l),
(526,-290,l),
(526,518,l),
(511,517,o),
(485,516,o),
(470,516,cs),
(209,516,o),
(66,707,o),
(66,971,cs),
(66,1247,o),
(205,1412,o),
(541,1412,cs),
(1075,1412,l),
(1075,1259,l),
(1020,1259,l),
(1020,-290,l)
);
}
);
width = 1222;
}
);
unicode = 182;
},
{
glyphname = section;
layers = (
{
layerId = "01C703B5-1257-45FB-9F79-4B1C4C3BA1BB";
shapes = (
{
closed = 1;
nodes = (
(318,-26,o),
(231,-8,o),
(146,27,c),
(146,202,l),
(213,170,o),
(322,129,o),
(431,129,cs),
(605,129,o),
(636,218,o),
(636,262,cs),
(636,349,o),
(508,379,o),
(385,429,cs),
(296,465,o),
(136,527,o),
(136,702,cs),
(136,833,o),
(231,908,o),
(308,951,c),
(212,998,o),
(153,1069,o),
(153,1173,cs),
(153,1344,o),
(297,1442,o),
(512,1442,cs),
(595,1442,o),
(686,1425,o),
(786,1391,c),
(758,1234,l),
(674,1269,o),
(595,1294,o),
(518,1294,cs),
(434,1294,o),
(340,1274,o),
(340,1181,cs),
(340,1109,o),
(396,1081,o),
(549,1022,cs),
(666,977,o),
(819,920,o),
(819,741,cs),
(819,616,o),
(761,538,o),
(661,487,c),
(744,447,o),
(828,400,o),
(828,272,cs),
(828,93,o),
(679,-26,o),
(423,-26,cs)
);
},
{
closed = 1;
nodes = (
(305,640,o),
(399,583,o),
(519,546,c),
(568,570,o),
(652,620,o),
(652,711,cs),
(652,801,o),
(580,844,o),
(443,892,c),
(379,868,o),
(305,815,o),
(305,731,cs)
);
}
);
width = 955;
}
);
unicode = 167;
},
{
glyphname = copyright;
layers = (
{
layerId = "01C703B5-1257-45FB-9F79-4B1C4C3BA1BB";
shapes = (
{
closed = 1;
nodes = (
(477,908,o),
(572,1151,o),
(843,1151,cs),
(938,1151,o),
(1060,1116,o),
(1108,984,c),
(1012,925,l),
(972,1016,o),
(913,1028,o),
(840,1028,cs),
(669,1028,o),
(619,852,o),
(619,711,cs),
(619,572,o),
(668,398,o),
(840,398,cs),
(913,398,o),
(972,409,o),
(1012,501,c),
(1108,442,l),
(1060,310,o),
(938,275,o),
(843,275,cs),
(568,275,o),
(477,515,o),
(477,712,cs)
);
},
{
closed = 1;
nodes = (
(93,1108,o),
(417,1442,o),
(824,1442,cs),
(1226,1442,o),
(1554,1110,o),
(1554,706,cs),
(1554,301,o),
(1226,-26,o),
(824,-26,cs),
(417,-26,o),
(93,303,o),
(93,706,cs)
);
},
{
closed = 1;
nodes = (
(197,363,o),
(476,83,o),
(824,83,cs),
(1172,83,o),
(1448,363,o),
(1448,706,cs),
(1448,1050,o),
(1170,1334,o),
(824,1334,cs),
(477,1334,o),
(197,1050,o),
(197,706,cs)
);
}
);
width = 1647;
}
);
unicode = 169;
},
{
glyphname = registered;
layers = (
{
layerId = "01C703B5-1257-45FB-9F79-4B1C4C3BA1BB";
shapes = (
{
closed = 1;
nodes = (
(553,301,l),
(553,1129,l),
(813,1129,ls),
(945,1129,o),
(1105,1091,o),
(1105,899,cs),
(1105,836,o),
(1070,745,o),
(970,694,c),
(1114,654,o),
(1096,441,o),
(1152,301,c),
(1009,301,l),
(942,560,o),
(962,646,o),
(811,646,cs),
(693,646,l),
(693,301,l)
);
},
{
closed = 1;
nodes = (
(693,1006,l),
(693,768,l),
(811,768,ls),
(888,768,o),
(964,788,o),
(964,888,cs),
(964,990,o),
(890,1006,o),
(810,1006,cs)
);
},
{
closed = 1;
nodes = (
(196,363,o),
(478,82,o),
(821,82,cs),
(1168,82,o),
(1444,364,o),
(1444,711,cs),
(1444,1051,o),
(1171,1334,o),
(821,1334,cs),
(478,1334,o),
(196,1054,o),
(196,711,cs)
);
},
{
closed = 1;
nodes = (
(92,1119,o),
(425,1442,o),
(821,1442,cs),
(1223,1442,o),
(1550,1117,o),
(1550,711,cs),
(1550,304,o),
(1221,-26,o),
(821,-26,cs),
(423,-26,o),
(92,304,o),
(92,711,cs)
);
}
);
width = 1644;
}
);
unicode = 174;
},
{
glyphname = trademark;
layers = (
{
layerId = "01C703B5-1257-45FB-9F79-4B1C4C3BA1BB";
shapes = (
{
closed = 1;
nodes = (
(851,1222,l),
(826,1314,l),
(826,696,l),
(726,696,l),
(726,1412,l),
(897,1412,l),
(1080,846,l),
(1269,1412,l),
(1430,1412,l),
(1430,696,l),
(1330,696,l),
(1330,1318,l),
(1305,1226,l),
(1121,696,l),
(1027,696,l)
);
},
{
closed = 1;
nodes = (
(310,1313,l),
(112,1313,l),
(112,1412,l),
(612,1412,l),
(612,1313,l),
(405,1313,l),
(405,696,l),
(310,696,l)
);
}
);
width = 1603;
}
);
unicode = 8482;
},
{
glyphname = degree;
layers = (
{
layerId = "01C703B5-1257-45FB-9F79-4B1C4C3BA1BB";
shapes = (
{
closed = 1;
nodes = (
(98,1275,o),
(236,1412,o),
(404,1412,cs),
(572,1412,o),
(710,1275,o),
(710,1104,cs),
(710,936,o),
(573,797,o),
(404,797,cs),
(236,797,o),
(98,935,o),
(98,1104,cs)
);
},
{
closed = 1;
nodes = (
(234,1012,o),
(311,937,o),
(404,937,cs),
(500,937,o),
(574,1013,o),
(574,1104,cs),
(574,1196,o),
(497,1273,o),
(404,1273,cs),
(311,1273,o),
(234,1199,o),
(234,1104,cs)
);
}
);
width = 808;
}
);
unicode = 176;
},
{
glyphname = bar;
layers = (
{
layerId = "01C703B5-1257-45FB-9F79-4B1C4C3BA1BB";
shapes = (
{
closed = 1;
nodes = (
(167,1442,l),
(330,1442,l),
(330,-477,l),
(167,-477,l)
);
}
);
width = 497;
}
);
unicode = 124;
},
{
glyphname = brokenbar;
layers = (
{
layerId = "01C703B5-1257-45FB-9F79-4B1C4C3BA1BB";
shapes = (
{
closed = 1;
nodes = (
(177,1442,l),
(340,1442,l),
(340,719,l),
(177,719,l)
);
},
{
closed = 1;
nodes = (
(177,300,l),
(340,300,l),
(340,-477,l),
(177,-477,l)
);
}
);
width = 517;
}
);
unicode = 166;
},
{
glyphname = dagger;
layers = (
{
layerId = "01C703B5-1257-45FB-9F79-4B1C4C3BA1BB";
shapes = (
{
closed = 1;
nodes = (
(394,929,l),
(65,929,l),
(65,1088,l),
(394,1088,l),
(394,1412,l),
(558,1412,l),
(558,1088,l),
(883,1088,l),
(883,929,l),
(558,929,l),
(558,0,l),
(394,0,l)
);
}
);
width = 948;
}
);
unicode = 8224;
},
{
glyphname = daggerdbl;
layers = (
{
layerId = "01C703B5-1257-45FB-9F79-4B1C4C3BA1BB";
shapes = (
{
closed = 1;
nodes = (
(453,327,l),
(124,327,l),
(124,486,l),
(453,486,l),
(453,929,l),
(124,929,l),
(124,1089,l),
(453,1089,l),
(453,1412,l),
(619,1412,l),
(619,1089,l),
(948,1089,l),
(948,929,l),
(619,929,l),
(619,486,l),
(948,486,l),
(948,327,l),
(619,327,l),
(619,0,l),
(453,0,l)
);
}
);
width = 1073;
}
);
unicode = 8225;
},
{
glyphname = cent;
layers = (
{
layerId = "01C703B5-1257-45FB-9F79-4B1C4C3BA1BB";
shapes = (
{
closed = 1;
nodes = (
(664,1302,l),
(782,1302,l),
(703,1034,l),
(740,1013,ls),
(787,986,o),
(825,952,o),
(856,924,c),
(767,803,l),
(735,827,o),
(719,844,o),
(654,871,c),
(443,153,l),
(479,141,o),
(513,136,o),
(550,136,cs),
(653,136,o),
(733,187,o),
(794,235,c),
(843,107,l),
(784,30,o),
(694,-26,o),
(550,-26,cs),
(503,-26,o),
(452,-18,o),
(396,-5,c),
(330,-233,l),
(213,-233,l),
(293,43,l),
(178,120,o),
(94,266,o),
(94,508,cs),
(94,925,o),
(319,1054,o),
(573,1054,cs),
(577,1054,o),
(583,1054,o),
(590,1052,c)
);
},
{
closed = 1;
nodes = (
(286,409,o),
(306,312,o),
(347,228,c),
(543,893,l),
(347,872,o),
(286,719,o),
(286,514,cs)
);
}
);
width = 953;
}
);
unicode = 162;
},
{
glyphname = currency;
layers = (
{
layerId = "01C703B5-1257-45FB-9F79-4B1C4C3BA1BB";
shapes = (
{
closed = 1;
nodes = (
(150,989,o),
(195,1113,o),
(272,1217,c),
(175,1315,l),
(279,1418,l),
(376,1320,l),
(480,1396,o),
(601,1442,o),
(734,1442,cs),
(863,1442,o),
(985,1397,o),
(1089,1321,c),
(1186,1418,l),
(1290,1315,l),
(1193,1217,l),
(1273,1116,o),
(1317,993,o),
(1317,856,cs),
(1317,723,o),
(1273,602,o),
(1196,501,c),
(1225,470,o),
(1261,436,o),
(1290,407,c),
(1186,303,l),
(1094,395,l),
(990,315,o),
(867,271,o),
(734,271,cs),
(601,271,o),
(476,316,o),
(372,396,c),
(279,303,l),
(175,407,l),
(270,502,l),
(194,602,o),
(150,723,o),
(150,856,cs)
);
},
{
closed = 1;
nodes = (
(1013,410,o),
(1152,633,o),
(1152,856,cs),
(1152,1079,o),
(1012,1302,o),
(734,1302,cs),
(455,1302,o),
(316,1079,o),
(316,856,cs),
(316,633,o),
(455,410,o),
(734,410,cs)
);
}
);
width = 1466;
}
);
unicode = 164;
},
{
glyphname = dollar;
layers = (
{
layerId = "01C703B5-1257-45FB-9F79-4B1C4C3BA1BB";
shapes = (
{
closed = 1;
nodes = (
(484,39,l),
(309,42,o),
(157,108,o),
(90,285,c),
(130,314,o),
(167,337,o),
(206,365,c),
(248,297,o),
(332,215,o),
(484,207,c),
(484,629,l),
(204,714,o),
(113,805,o),
(113,1002,cs),
(113,1212,o),
(288,1315,o),
(487,1339,c),
(487,1503,l),
(611,1503,l),
(611,1342,l),
(728,1334,o),
(930,1305,o),
(983,1124,c),
(838,1058,l),
(798,1138,o),
(713,1167,o),
(610,1178,c),
(610,787,l),
(801,729,o),
(1005,636,o),
(1005,409,cs),
(1005,185,o),
(822,70,o),
(607,43,c),
(607,-161,l),
(484,-161,l)
);
},
{
closed = 1;
nodes = (
(808,500,o),
(717,550,o),
(610,590,c),
(610,212,l),
(749,228,o),
(808,313,o),
(808,396,cs)
);
},
{
closed = 1;
nodes = (
(305,906,o),
(382,863,o),
(486,826,c),
(486,1175,l),
(331,1146,o),
(305,1063,o),
(305,1009,cs)
);
}
);
width = 1099;
}
);
unicode = 36;
},
{
glyphname = euro;
lastChange = "2023-07-13 14:20:29 +0000";
layers = (
{
layerId = "01C703B5-1257-45FB-9F79-4B1C4C3BA1BB";
shapes = (
{
closed = 1;
nodes = (
(1147,363,l),
(1143,237,o),
(1060,-26,o),
(727,-26,cs),
(441,-26,o),
(284,160,o),
(233,454,c),
(79,454,l),
(120,587,l),
(217,587,l),
(214,610,o),
(213,633,o),
(213,657,cs),
(213,676,o),
(214,709,o),
(217,729,c),
(78,729,l),
(121,862,l),
(231,862,l),
(282,1164,o),
(463,1375,o),
(734,1375,cs),
(946,1375,o),
(1131,1239,o),
(1144,967,c),
(960,967,l),
(944,1199,o),
(773,1212,o),
(734,1212,cs),
(585,1212,o),
(466,1068,o),
(423,862,c),
(875,862,l),
(832,729,l),
(410,729,l),
(407,706,o),
(405,684,o),
(405,661,cs),
(405,636,o),
(407,612,o),
(411,587,c),
(812,587,l),
(770,454,l),
(426,454,l),
(466,274,o),
(557,136,o),
(722,136,cs),
(859,136,o),
(954,217,o),
(973,370,c)
);
}
);
width = 1265;
}
);
unicode = 8364;
},
{
glyphname = sterling;
layers = (
{
layerId = "01C703B5-1257-45FB-9F79-4B1C4C3BA1BB";
shapes = (
{
closed = 1;
nodes = (
(112,141,l),
(224,156,l),
(252,172,o),
(269,364,o),
(269,416,cs),
(269,648,l),
(106,648,l),
(106,793,l),
(269,793,l),
(269,913,ls),
(269,1142,o),
(293,1442,o),
(682,1442,cs),
(837,1442,o),
(978,1385,o),
(1063,1226,c),
(919,1160,l),
(880,1241,o),
(801,1293,o),
(688,1293,cs),
(499,1293,o),
(463,1157,o),
(463,987,cs),
(463,793,l),
(774,793,l),
(774,648,l),
(463,648,l),
(463,416,ls),
(463,357,o),
(440,229,o),
(410,156,c),
(1063,156,l),
(1063,0,l),
(112,0,l)
);
}
);
width = 1163;
}
);
unicode = 163;
},
{
glyphname = yen;
layers = (
{
layerId = "01C703B5-1257-45FB-9F79-4B1C4C3BA1BB";
shapes = (
{
closed = 1;
nodes = (
(504,0,l),
(504,286,l),
(179,286,l),
(179,424,l),
(504,424,l),
(504,536,l),
(179,536,l),
(179,675,l),
(439,675,l),
(318,916,o),
(190,1169,o),
(65,1412,c),
(292,1412,l),
(605,722,l),
(923,1412,l),
(1137,1412,l),
(763,675,l),
(1020,675,l),
(1020,536,l),
(696,536,l),
(696,424,l),
(1020,424,l),
(1020,286,l),
(696,286,l),
(696,0,l)
);
}
);
width = 1202;
}
);
unicode = 165;
},
{
glyphname = plus;
lastChange = "2023-07-13 14:22:11 +0000";
layers = (
{
layerId = "01C703B5-1257-45FB-9F79-4B1C4C3BA1BB";
shapes = (
{
closed = 1;
nodes = (
(517,505,l),
(126,505,l),
(126,665,l),
(517,665,l),
(517,1058,l),
(681,1058,l),
(681,665,l),
(1074,665,l),
(1074,505,l),
(681,505,l),
(681,114,l),
(517,114,l)
);
}
);
width = 1200;
}
);
unicode = 43;
},
{
glyphname = minus;
lastChange = "2023-07-13 14:22:11 +0000";
layers = (
{
layerId = "01C703B5-1257-45FB-9F79-4B1C4C3BA1BB";
shapes = (
{
closed = 1;
nodes = (
(126,505,l),
(126,665,l),
(1074,665,l),
(1074,505,l)
);
}
);
width = 1200;
}
);
unicode = 8722;
},
{
glyphname = multiply;
lastChange = "2023-07-13 14:22:11 +0000";
layers = (
{
layerId = "01C703B5-1257-45FB-9F79-4B1C4C3BA1BB";
shapes = (
{
closed = 1;
nodes = (
(598,470,l),
(321,194,l),
(209,305,l),
(487,581,l),
(208,860,l),
(325,976,l),
(603,699,l),
(881,976,l),
(993,865,l),
(714,587,l),
(992,311,l),
(874,194,l)
);
}
);
width = 1200;
}
);
unicode = 215;
},
{
glyphname = divide;
lastChange = "2023-07-13 14:22:11 +0000";
layers = (
{
layerId = "01C703B5-1257-45FB-9F79-4B1C4C3BA1BB";
shapes = (
{
closed = 1;
nodes = (
(126,675,l),
(1074,675,l),
(1074,513,l),
(126,513,l)
);
},
{
closed = 1;
nodes = (
(486,1053,l),
(717,1053,l),
(717,814,l),
(486,814,l)
);
},
{
closed = 1;
nodes = (
(486,366,l),
(717,366,l),
(717,127,l),
(486,127,l)
);
}
);
width = 1200;
}
);
unicode = 247;
},
{
glyphname = equal;
lastChange = "2023-07-13 14:22:11 +0000";
layers = (
{
layerId = "01C703B5-1257-45FB-9F79-4B1C4C3BA1BB";
shapes = (
{
closed = 1;
nodes = (
(126,700,l),
(126,860,l),
(1074,860,l),
(1074,700,l)
);
},
{
closed = 1;
nodes = (
(126,308,l),
(126,470,l),
(1074,470,l),
(1074,308,l)
);
}
);
width = 1200;
}
);
unicode = 61;
},
{
glyphname = notequal;
lastChange = "2023-07-13 14:23:05 +0000";
layers = (
{
layerId = "01C703B5-1257-45FB-9F79-4B1C4C3BA1BB";
shapes = (
{
closed = 1;
nodes = (
(919,1047,l),
(784,1105,l),
(301,123,l),
(435,65,l)
);
},
{
closed = 1;
nodes = (
(1074,308,l),
(1074,470,l),
(126,470,l),
(126,308,l)
);
},
{
closed = 1;
nodes = (
(1074,700,l),
(1074,860,l),
(126,860,l),
(126,700,l)
);
}
);
width = 1200;
}
);
unicode = 8800;
},
{
glyphname = greater;
lastChange = "2023-07-13 14:22:11 +0000";
layers = (
{
layerId = "01C703B5-1257-45FB-9F79-4B1C4C3BA1BB";
shapes = (
{
closed = 1;
nodes = (
(126,289,l),
(858,585,l),
(126,899,l),
(126,1074,l),
(1074,651,l),
(1074,510,l),
(126,111,l)
);
}
);
width = 1200;
}
);
unicode = 62;
},
{
glyphname = less;
lastChange = "2023-07-13 14:22:11 +0000";
layers = (
{
layerId = "01C703B5-1257-45FB-9F79-4B1C4C3BA1BB";
shapes = (
{
closed = 1;
nodes = (
(1074,111,l),
(126,510,l),
(126,651,l),
(1074,1074,l),
(1074,899,l),
(342,585,l),
(1074,289,l)
);
}
);
width = 1200;
}
);
unicode = 60;
},
{
glyphname = greaterequal;
lastChange = "2023-07-13 14:24:20 +0000";
layers = (
{
layerId = "01C703B5-1257-45FB-9F79-4B1C4C3BA1BB";
shapes = (
{
closed = 1;
nodes = (
(1047,766,l),
(1047,651,l),
(163,236,l),
(163,407,l),
(808,709,l),
(163,1013,l),
(163,1183,l)
);
},
{
closed = 1;
nodes = (
(163,2,l),
(163,162,l),
(1049,162,l),
(1049,2,l)
);
}
);
width = 1200;
}
);
unicode = 8805;
},
{
glyphname = plusminus;
lastChange = "2023-07-13 14:22:11 +0000";
layers = (
{
layerId = "01C703B5-1257-45FB-9F79-4B1C4C3BA1BB";
shapes = (
{
closed = 1;
nodes = (
(517,564,l),
(126,564,l),
(126,725,l),
(517,725,l),
(517,1070,l),
(681,1070,l),
(681,725,l),
(1074,725,l),
(1074,564,l),
(681,564,l),
(681,222,l),
(517,222,l)
);
},
{
closed = 1;
nodes = (
(126,-13,l),
(126,147,l),
(1074,147,l),
(1074,-13,l)
);
}
);
width = 1200;
}
);
unicode = 177;
},
{
glyphname = approxequal;
lastChange = "2023-07-13 14:24:43 +0000";
layers = (
{
layerId = "01C703B5-1257-45FB-9F79-4B1C4C3BA1BB";
shapes = (
{
pos = (0,149);
ref = asciitilde;
},
{
pos = (0,-218);
ref = asciitilde;
}
);
width = 1200;
},
{
associatedMasterId = "01C703B5-1257-45FB-9F79-4B1C4C3BA1BB";
layerId = "FD1918F8-8275-4CD1-80AB-9100A4110E3B";
name = "13 Jul 23 at 16:24";
shapes = (
{
closed = 1;
nodes = (
(1064,452,l),
(1005,347,o),
(917,259,o),
(805,259,cs),
(652,259,o),
(532,405,o),
(403,405,cs),
(317,405,o),
(262,336,o),
(211,259,c),
(137,324,l),
(201,445,o),
(298,521,o),
(415,521,cs),
(564,521,o),
(675,375,o),
(807,375,cs),
(882,375,o),
(931,423,o),
(990,519,c)
);
},
{
closed = 1;
nodes = (
(1064,789,l),
(1005,682,o),
(917,596,o),
(805,596,cs),
(648,596,o),
(540,741,o),
(401,741,cs),
(316,741,o),
(262,671,o),
(211,596,c),
(138,660,l),
(202,781,o),
(298,856,o),
(415,856,cs),
(562,856,o),
(674,711,o),
(810,711,cs),
(882,711,o),
(931,761,o),
(990,857,c)
);
}
);
width = 1200;
}
);
unicode = 8776;
},
{
glyphname = asciitilde;
lastChange = "2023-07-13 14:22:11 +0000";
layers = (
{
layerId = "01C703B5-1257-45FB-9F79-4B1C4C3BA1BB";
shapes = (
{
closed = 1;
nodes = (
(116,514,l),
(164,647,o),
(250,728,o),
(375,728,cs),
(472,728,o),
(739,602,o),
(848,602,cs),
(908,602,o),
(976,642,o),
(1021,734,c),
(1085,656,l),
(1037,477,o),
(919,443,o),
(833,443,cs),
(678,443,o),
(433,568,o),
(355,568,cs),
(298,568,o),
(228,522,o),
(180,434,c)
);
}
);
width = 1200;
}
);
unicode = 126;
},
{
glyphname = logicalnot;
lastChange = "2023-07-13 14:22:11 +0000";
layers = (
{
layerId = "01C703B5-1257-45FB-9F79-4B1C4C3BA1BB";
shapes = (
{
closed = 1;
nodes = (
(1074,771,l),
(1074,230,l),
(915,230,l),
(915,612,l),
(126,612,l),
(126,771,l)
);
}
);
width = 1200;
}
);
unicode = 172;
},
{
glyphname = asciicircum;
lastChange = "2023-07-13 14:22:11 +0000";
layers = (
{
layerId = "01C703B5-1257-45FB-9F79-4B1C4C3BA1BB";
shapes = (
{
closed = 1;
nodes = (
(152,523,l),
(537,1381,l),
(666,1381,l),
(1048,523,l),
(876,523,l),
(600,1172,l),
(323,523,l)
);
}
);
width = 1200;
}
);
unicode = 94;
},
{
glyphname = infinity;
layers = (
{
layerId = "01C703B5-1257-45FB-9F79-4B1C4C3BA1BB";
shapes = (
{
closed = 1;
nodes = (
(1443,564,l),
(1443,368,o),
(1294,245,o),
(1138,245,cs),
(1011,245,o),
(928,316,o),
(787,480,c),
(680,355,o),
(578,245,o),
(420,245,cs),
(262,245,o),
(123,377,o),
(123,557,cs),
(123,741,o),
(256,876,o),
(436,876,cs),
(505,876,o),
(567,851,o),
(627,810,cs),
(687,769,o),
(740,697,o),
(793,636,c),
(838,687,o),
(895,764,o),
(950,804,cs),
(1009,847,o),
(1075,876,o),
(1152,876,cs),
(1323,876,o),
(1443,750,o),
(1443,566,c)
);
},
{
closed = 1;
nodes = (
(438,357,l),
(542,357,o),
(633,453,o),
(721,551,c),
(636,658,o),
(556,765,o),
(424,765,cs),
(307,765,o),
(239,667,o),
(239,555,cs),
(239,448,o),
(321,357,o),
(436,357,c)
);
},
{
closed = 1;
nodes = (
(1138,765,l),
(1042,765,o),
(949,670,o),
(854,564,c),
(976,424,o),
(1046,357,o),
(1144,357,cs),
(1261,357,o),
(1327,462,o),
(1327,557,cs),
(1327,685,o),
(1248,765,o),
(1140,765,c)
);
}
);
width = 1568;
}
);
unicode = 8734;
},
{
glyphname = integral;
layers = (
{
layerId = "01C703B5-1257-45FB-9F79-4B1C4C3BA1BB";
shapes = (
{
closed = 1;
nodes = (
(653,1504,l),
(628,1519,o),
(601,1527,o),
(580,1527,cs),
(470,1527,o),
(423,1421,o),
(423,1147,cs),
(423,844,o),
(451,508,o),
(451,187,cs),
(451,-222,o),
(317,-315,o),
(161,-315,cs),
(112,-315,o),
(56,-297,o),
(24,-280,c),
(51,-146,l),
(83,-161,o),
(107,-172,o),
(143,-172,cs),
(218,-172,o),
(289,-122,o),
(289,190,cs),
(289,516,o),
(264,854,o),
(264,1164,cs),
(264,1516,o),
(369,1664,o),
(566,1664,cs),
(605,1664,o),
(652,1649,o),
(683,1636,c)
);
}
);
width = 710;
}
);
unicode = 8747;
},
{
glyphname = increment;
layers = (
{
layerId = "01C703B5-1257-45FB-9F79-4B1C4C3BA1BB";
shapes = (
{
closed = 1;
nodes = (
(63,119,l),
(542,1396,l),
(743,1396,l),
(1214,121,l),
(1214,0,l),
(63,0,l)
);
},
{
closed = 1;
nodes = (
(1027,150,l),
(761,889,l),
(643,1227,l),
(529,888,l),
(529,889,l),
(256,150,l)
);
}
);
width = 1277;
}
);
unicode = 8710;
},
{
glyphname = product;
layers = (
{
layerId = "01C703B5-1257-45FB-9F79-4B1C4C3BA1BB";
shapes = (
{
closed = 1;
nodes = (
(1131,1193,l),
(1131,-187,l),
(956,-187,l),
(956,1193,l),
(449,1193,l),
(449,-187,l),
(274,-187,l),
(274,1193,l),
(65,1193,l),
(65,1361,l),
(1338,1361,l),
(1338,1193,l)
);
}
);
width = 1404;
}
);
unicode = 8719;
},
{
glyphname = summation;
layers = (
{
layerId = "01C703B5-1257-45FB-9F79-4B1C4C3BA1BB";
shapes = (
{
closed = 1;
nodes = (
(79,-187,l),
(79,-65,l),
(586,585,l),
(102,1231,l),
(102,1361,l),
(1047,1361,l),
(1047,1204,l),
(343,1204,l),
(792,611,l),
(305,-14,l),
(1079,-14,l),
(1079,-187,l)
);
}
);
width = 1162;
}
);
unicode = 8721;
},
{
glyphname = radical;
layers = (
{
layerId = "01C703B5-1257-45FB-9F79-4B1C4C3BA1BB";
shapes = (
{
closed = 1;
nodes = (
(924,1618,l),
(1064,1618,l),
(630,-283,l),
(478,-283,l),
(177,597,l),
(32,540,l),
(-5,654,l),
(284,770,l),
(548,-57,l)
);
}
);
width = 1105;
}
);
unicode = 8730;
},
{
glyphname = micro;
lastChange = "2023-07-13 14:20:29 +0000";
layers = (
{
layerId = "01C703B5-1257-45FB-9F79-4B1C4C3BA1BB";
shapes = (
{
closed = 1;
nodes = (
(829,984,l),
(1003,984,l),
(1003,0,l),
(852,0,l),
(840,125,l),
(779,46,o),
(688,-26,o),
(563,-26,cs),
(466,-26,o),
(401,18,o),
(347,69,c),
(347,-40,o),
(350,-165,o),
(350,-221,cs),
(350,-438,l),
(175,-438,l),
(175,984,l),
(350,984,l),
(350,444,ls),
(350,281,o),
(382,127,o),
(570,127,cs),
(730,127,o),
(829,233,o),
(829,508,cs)
);
}
);
width = 1137;
}
);
unicode = 181;
},
{
glyphname = partialdiff;
layers = (
{
layerId = "01C703B5-1257-45FB-9F79-4B1C4C3BA1BB";
shapes = (
{
closed = 1;
nodes = (
(822,717,o),
(823,732,o),
(823,747,cs),
(823,991,o),
(742,1267,o),
(477,1267,cs),
(408,1267,o),
(320,1247,o),
(228,1206,c),
(175,1328,l),
(289,1381,o),
(394,1408,o),
(489,1408,cs),
(822,1408,o),
(1001,1115,o),
(1001,643,cs),
(1001,119,o),
(768,-22,o),
(536,-22,cs),
(300,-22,o),
(103,129,o),
(103,435,cs),
(103,712,o),
(281,861,o),
(510,861,cs),
(632,861,o),
(736,808,o),
(822,702,c)
);
},
{
closed = 1;
nodes = (
(379,723,o),
(278,614,o),
(278,436,cs),
(278,244,o),
(377,122,o),
(537,122,cs),
(697,122,o),
(812,264,o),
(812,449,cs),
(812,600,o),
(707,723,o),
(542,723,cs)
);
}
);
width = 1130;
}
);
unicode = 8706;
},
{
glyphname = percent;
layers = (
{
layerId = "01C703B5-1257-45FB-9F79-4B1C4C3BA1BB";
shapes = (
{
closed = 1;
nodes = (
(238,893,o),
(257,748,o),
(389,748,cs),
(517,748,o),
(538,897,o),
(538,1010,cs),
(538,1153,o),
(505,1272,o),
(389,1272,cs),
(257,1272,o),
(238,1126,o),
(238,1009,cs)
);
},
{
closed = 1;
nodes = (
(695,755,o),
(576,616,o),
(387,616,cs),
(207,616,o),
(82,748,o),
(82,1008,cs),
(82,1247,o),
(183,1405,o),
(396,1405,cs),
(607,1405,o),
(695,1239,o),
(695,1015,cs)
);
},
{
closed = 1;
nodes = (
(1106,233,o),
(1132,112,o),
(1254,112,cs),
(1382,112,o),
(1408,247,o),
(1408,375,cs),
(1408,500,o),
(1380,638,o),
(1256,638,cs),
(1125,638,o),
(1106,486,o),
(1106,362,cs)
);
},
{
closed = 1;
nodes = (
(1562,133,o),
(1465,-22,o),
(1255,-22,cs),
(1031,-22,o),
(950,157,o),
(950,372,cs),
(950,629,o),
(1070,768,o),
(1255,768,cs),
(1379,768,o),
(1562,689,o),
(1562,377,cs)
);
},
{
closed = 1;
nodes = (
(1305,1418,l),
(1028,925,o),
(760,451,o),
(480,-40,c),
(330,-40,l),
(1156,1418,l)
);
}
);
width = 1643;
}
);
unicode = 37;
},
{
glyphname = perthousand;
layers = (
{
layerId = "01C703B5-1257-45FB-9F79-4B1C4C3BA1BB";
shapes = (
{
closed = 1;
nodes = (
(238,930,o),
(257,785,o),
(389,785,cs),
(517,785,o),
(538,934,o),
(538,1047,cs),
(538,1190,o),
(505,1309,o),
(389,1309,cs),
(257,1309,o),
(238,1163,o),
(238,1046,cs)
);
},
{
closed = 1;
nodes = (
(695,792,o),
(576,653,o),
(387,653,cs),
(207,653,o),
(82,785,o),
(82,1045,cs),
(82,1284,o),
(183,1442,o),
(396,1442,cs),
(607,1442,o),
(695,1276,o),
(695,1052,cs)
);
},
{
closed = 1;
nodes = (
(1106,229,o),
(1132,108,o),
(1254,108,cs),
(1382,108,o),
(1408,243,o),
(1408,371,cs),
(1408,496,o),
(1380,634,o),
(1256,634,cs),
(1125,634,o),
(1106,482,o),
(1106,358,cs)
);
},
{
closed = 1;
nodes = (
(1562,129,o),
(1465,-26,o),
(1255,-26,cs),
(1031,-26,o),
(950,153,o),
(950,368,cs),
(950,625,o),
(1070,764,o),
(1255,764,cs),
(1379,764,o),
(1562,685,o),
(1562,373,cs)
);
},
{
closed = 1;
nodes = (
(1305,1442,l),
(1028,949,o),
(760,449,o),
(480,-40,c),
(330,-40,l),
(1156,1442,l)
);
},
{
closed = 1;
nodes = (
(1830,233,o),
(1856,112,o),
(1978,112,cs),
(2106,112,o),
(2132,247,o),
(2132,375,cs),
(2132,500,o),
(2104,638,o),
(1980,638,cs),
(1849,638,o),
(1830,486,o),
(1830,362,cs)
);
},
{
closed = 1;
nodes = (
(2286,133,o),
(2189,-22,o),
(1979,-22,cs),
(1755,-22,o),
(1674,157,o),
(1674,372,cs),
(1674,629,o),
(1794,768,o),
(1979,768,cs),
(2103,768,o),
(2286,689,o),
(2286,377,cs)
);
}
);
width = 2361;
}
);
unicode = 8240;
},
{
glyphname = lozenge;
layers = (
{
layerId = "01C703B5-1257-45FB-9F79-4B1C4C3BA1BB";
shapes = (
{
closed = 1;
nodes = (
(590,-89,l),
(450,-89,l),
(63,680,l),
(454,1449,l),
(595,1449,l),
(983,678,l)
);
},
{
closed = 1;
nodes = (
(523,1285,l),
(226,678,l),
(524,65,l),
(820,676,l)
);
}
);
width = 1045;
}
);
unicode = 9674;
},
{
glyphname = dieresiscomb;
lastChange = "2023-07-13 14:25:47 +0000";
layers = (
{
anchors = (
{
name = _top;
pos = (405,984);
},
{
name = top;
pos = (405,1377);
}
);
layerId = "01C703B5-1257-45FB-9F79-4B1C4C3BA1BB";
shapes = (
{
closed = 1;
nodes = (
(327,1377,l),
(327,1205,l),
(105,1205,l),
(105,1377,l)
);
},
{
closed = 1;
nodes = (
(705,1377,l),
(705,1205,l),
(483,1205,l),
(483,1377,l)
);
}
);
width = 816;
}
);
unicode = 776;
},
{
glyphname = dotaccentcomb;
lastChange = "2023-07-13 14:25:47 +0000";
layers = (
{
anchors = (
{
name = _top;
pos = (272,984);
},
{
name = top;
pos = (272,1410);
}
);
layerId = "01C703B5-1257-45FB-9F79-4B1C4C3BA1BB";
shapes = (
{
closed = 1;
nodes = (
(177,1410,l),
(367,1410,l),
(367,1197,l),
(177,1197,l)
);
}
);
width = 546;
}
);
unicode = 775;
},
{
glyphname = gravecomb;
lastChange = "2023-07-13 14:25:47 +0000";
layers = (
{
anchors = (
{
name = _top;
pos = (363,984);
},
{
name = top;
pos = (363,1473);
}
);
layerId = "01C703B5-1257-45FB-9F79-4B1C4C3BA1BB";
shapes = (
{
closed = 1;
nodes = (
(435,1164,l),
(162,1473,l),
(392,1473,l),
(564,1164,l)
);
}
);
width = 816;
}
);
unicode = 768;
},
{
glyphname = acutecomb;
lastChange = "2023-07-13 14:25:47 +0000";
layers = (
{
anchors = (
{
name = _top;
pos = (443,984);
},
{
name = top;
pos = (443,1474);
}
);
layerId = "01C703B5-1257-45FB-9F79-4B1C4C3BA1BB";
shapes = (
{
closed = 1;
nodes = (
(249,1165,l),
(417,1474,l),
(636,1474,l),
(380,1165,l)
);
}
);
width = 816;
}
);
unicode = 769;
},
{
glyphname = hungarumlautcomb;
lastChange = "2023-07-13 14:25:47 +0000";
layers = (
{
anchors = (
{
name = _top;
pos = (415,984);
},
{
name = top;
pos = (415,1451);
}
);
layerId = "01C703B5-1257-45FB-9F79-4B1C4C3BA1BB";
shapes = (
{
closed = 1;
nodes = (
(235,1451,l),
(452,1451,l),
(204,1158,l),
(68,1158,l)
);
},
{
closed = 1;
nodes = (
(545,1451,l),
(761,1451,l),
(513,1158,l),
(376,1158,l)
);
}
);
width = 786;
}
);
unicode = 779;
},
{
glyphname = circumflexcomb;
lastChange = "2023-07-13 14:25:47 +0000";
layers = (
{
anchors = (
{
name = _top;
pos = (402,984);
},
{
name = top;
pos = (402,1545);
}
);
layerId = "01C703B5-1257-45FB-9F79-4B1C4C3BA1BB";
shapes = (
{
closed = 1;
nodes = (
(563,1187,l),
(400,1413,l),
(234,1187,l),
(53,1187,l),
(313,1545,l),
(495,1545,l),
(751,1187,l)
);
}
);
width = 816;
}
);
unicode = 770;
},
{
glyphname = caroncomb;
lastChange = "2023-07-13 14:25:47 +0000";
layers = (
{
anchors = (
{
name = _top;
pos = (278,984);
},
{
name = top;
pos = (278,1449);
}
);
layerId = "01C703B5-1257-45FB-9F79-4B1C4C3BA1BB";
shapes = (
{
closed = 1;
nodes = (
(369,1139,l),
(185,1139,l),
(-38,1449,l),
(139,1449,l),
(275,1269,l),
(406,1449,l),
(593,1449,l)
);
}
);
width = 546;
}
);
unicode = 780;
},
{
glyphname = brevecomb;
lastChange = "2023-07-13 14:25:47 +0000";
layers = (
{
anchors = (
{
name = _top;
pos = (272,984);
},
{
name = top;
pos = (272,1472);
}
);
layerId = "01C703B5-1257-45FB-9F79-4B1C4C3BA1BB";
shapes = (
{
closed = 1;
nodes = (
(101,1472,l),
(108,1359,o),
(157,1290,o),
(268,1290,cs),
(417,1290,o),
(438,1421,o),
(443,1472,c),
(542,1472,l),
(539,1263,o),
(453,1153,o),
(268,1153,cs),
(13,1153,o),
(1,1382,o),
(1,1472,c)
);
}
);
width = 546;
}
);
unicode = 774;
},
{
glyphname = ringcomb;
lastChange = "2023-07-13 14:25:47 +0000";
layers = (
{
anchors = (
{
name = _top;
pos = (403,984);
},
{
name = top;
pos = (403,1598);
}
);
layerId = "01C703B5-1257-45FB-9F79-4B1C4C3BA1BB";
shapes = (
{
closed = 1;
nodes = (
(404,1505,l),
(328,1505,o),
(259,1448,o),
(259,1363,cs),
(259,1286,o),
(317,1226,o),
(404,1226,cs),
(488,1226,o),
(547,1286,o),
(547,1363,cs),
(547,1448,o),
(478,1505,o),
(402,1505,c)
);
},
{
closed = 1;
nodes = (
(542,1598,o),
(640,1501,o),
(640,1363,cs),
(640,1228,o),
(542,1132,o),
(403,1132,cs),
(264,1132,o),
(166,1228,o),
(166,1363,cs),
(166,1501,o),
(264,1598,o),
(403,1598,cs)
);
}
);
width = 816;
}
);
unicode = 778;
},
{
glyphname = tildecomb;
lastChange = "2023-07-13 14:25:47 +0000";
layers = (
{
anchors = (
{
name = _top;
pos = (415,984);
},
{
name = top;
pos = (415,1428);
}
);
layerId = "01C703B5-1257-45FB-9F79-4B1C4C3BA1BB";
shapes = (
{
closed = 1;
nodes = (
(464,1193,o),
(341,1269,o),
(288,1269,cs),
(245,1269,o),
(225,1246,o),
(204,1183,c),
(108,1183,l),
(108,1319,o),
(194,1414,o),
(294,1414,cs),
(377,1414,o),
(468,1341,o),
(541,1341,cs),
(588,1341,o),
(611,1372,o),
(622,1428,c),
(722,1428,l),
(714,1264,o),
(630,1193,o),
(536,1193,cs)
);
}
);
width = 816;
}
);
unicode = 771;
},
{
glyphname = macroncomb;
lastChange = "2023-07-13 14:25:47 +0000";
layers = (
{
anchors = (
{
name = _top;
pos = (269,984);
},
{
name = top;
pos = (269,1359);
}
);
layerId = "01C703B5-1257-45FB-9F79-4B1C4C3BA1BB";
shapes = (
{
closed = 1;
nodes = (
(-3,1359,l),
(540,1359,l),
(540,1242,l),
(-3,1242,l)
);
}
);
width = 546;
}
);
unicode = 772;
},
{
glyphname = dblgravecomb;
lastChange = "2023-07-13 14:20:29 +0000";
layers = (
{
layerId = "01C703B5-1257-45FB-9F79-4B1C4C3BA1BB";
shapes = (
{
closed = 1;
nodes = (
(729,1158,l),
(593,1158,l),
(345,1451,l),
(562,1451,l)
);
},
{
closed = 1;
nodes = (
(421,1158,l),
(284,1158,l),
(36,1451,l),
(252,1451,l)
);
}
);
width = 786;
}
);
unicode = 783;
},
{
glyphname = breveinvertedcomb;
lastChange = "2023-07-13 14:20:29 +0000";
layers = (
{
layerId = "01C703B5-1257-45FB-9F79-4B1C4C3BA1BB";
shapes = (
{
closed = 1;
nodes = (
(1,1153,l),
(1,1242,o),
(13,1472,o),
(268,1472,cs),
(453,1472,o),
(539,1362,o),
(542,1153,c),
(443,1153,l),
(438,1204,o),
(417,1335,o),
(268,1335,cs),
(157,1335,o),
(108,1266,o),
(101,1153,c)
);
}
);
width = 546;
}
);
unicode = 785;
},
{
glyphname = commaaccentcomb;
lastChange = "2023-07-13 14:20:29 +0000";
layers = (
{
layerId = "01C703B5-1257-45FB-9F79-4B1C4C3BA1BB";
shapes = (
{
closed = 1;
nodes = (
(38,-599,l),
(150,-107,l),
(372,-107,l),
(178,-599,l)
);
}
);
width = 521;
}
);
unicode = 806;
},
{
glyphname = cedillacomb;
lastChange = "2023-07-13 14:25:47 +0000";
layers = (
{
anchors = (
{
name = _bottom;
pos = (234,0);
},
{
name = bottom;
pos = (234,-439);
}
);
layerId = "01C703B5-1257-45FB-9F79-4B1C4C3BA1BB";
shapes = (
{
closed = 1;
nodes = (
(434,-316,o),
(392,-439,o),
(175,-439,cs),
(115,-439,o),
(71,-427,o),
(34,-412,c),
(60,-313,l),
(87,-324,o),
(126,-330,o),
(166,-330,cs),
(234,-330,o),
(282,-304,o),
(282,-256,cs),
(282,-203,o),
(220,-189,o),
(175,-189,cs),
(164,-189,o),
(157,-189,o),
(149,-190,c),
(96,-163,l),
(208,18,l),
(319,18,l),
(248,-97,l),
(377,-116,o),
(434,-160,o),
(434,-248,cs)
);
}
);
width = 481;
}
);
unicode = 807;
},
{
glyphname = ogonekcomb;
lastChange = "2023-07-13 14:25:47 +0000";
layers = (
{
anchors = (
{
name = _ogonek;
pos = (459,15);
}
);
layerId = "01C703B5-1257-45FB-9F79-4B1C4C3BA1BB";
shapes = (
{
closed = 1;
nodes = (
(423,15,l),
(332,-46,o),
(248,-107,o),
(248,-176,cs),
(248,-266,o),
(351,-266,o),
(367,-266,cs),
(404,-266,o),
(427,-255,o),
(459,-236,c),
(459,-332,l),
(408,-359,o),
(355,-384,o),
(272,-384,cs),
(131,-384,o),
(84,-297,o),
(84,-233,cs),
(84,-124,o),
(193,-41,o),
(324,15,c)
);
}
);
width = 546;
}
);
unicode = 808;
},
